<svg width="881" height="676" viewBox="0 0 881 676" fill="none" xmlns="http://www.w3.org/2000/svg">
<g clip-path="url(#clip0_9_144)">
<path d="M726.895 134.125C729.592 138.44 735.235 140.266 740.088 141.197C746.29 142.414 752.704 142.737 758.982 143.271L762.632 144.129C763.323 144.333 763.965 144.665 764.521 145.107C765.077 145.55 765.536 146.093 765.873 146.705C766.21 147.317 766.416 147.987 766.481 148.677C766.547 149.366 766.469 150.061 766.253 150.721C763.995 158.162 760.888 165.34 756.989 172.13L762.767 177.662C764.404 175.541 764.481 171.826 766.677 172.185C768.786 170.166 771.289 169.18 773.88 171.881C778.945 177.182 778.127 188.2 770.683 191.243L772.349 199.181C772.924 201.957 774.485 204.456 776.767 206.253C779.05 208.05 781.912 209.034 784.868 209.038L783.587 199.642C792.254 203.837 802.086 194.765 801.402 187.288C800.959 182.161 802.173 178.621 806.131 174.905C806.391 174.656 804.802 173.734 805.043 173.485C806.16 170.249 806.314 166.469 805.206 164.33C803.28 160.513 797.608 158.281 800.218 154.114C801.363 152.298 802.199 150.318 802.693 148.25C803.217 145.508 803.121 142.69 802.412 139.986C801.702 137.283 800.396 134.756 798.581 132.576C794.729 128.151 788.469 129.34 783.356 127.773C777.125 125.929 774.246 119.539 767.726 117.566C764.481 116.579 761.476 117.031 758.231 117.741C755.487 118.35 752.771 119.032 750.075 119.843C747.378 120.655 745.009 121.328 742.371 120.572C738.885 119.65 736.198 116.533 732.394 116.506C730.496 116.464 728.638 117.032 727.117 118.119C724.305 122.96 724.285 129.985 726.895 134.125Z" fill="#22A39F"/>
<path d="M681.056 303.323V303.295" stroke="black" stroke-width="4.11" stroke-miterlimit="10"/>
<path d="M763.027 176.925C764.053 175.227 765.275 173.643 766.667 172.205C768.776 170.185 771.28 169.199 773.87 171.9C778.936 177.202 778.117 188.22 770.673 191.262L772.339 199.201C772.914 201.976 774.475 204.475 776.757 206.272C779.041 208.069 781.903 209.053 784.858 209.057" stroke="black" stroke-width="4.11" stroke-linecap="round" stroke-linejoin="round"/>
<path d="M789.519 244.184C789.095 241.105 788.046 233.019 787.035 225.311C786.072 218.165 785.214 211.287 784.877 209.019L783.587 199.642" stroke="black" stroke-width="4.11" stroke-linecap="round" stroke-linejoin="round"/>
<path d="M730.063 151.792C730.063 151.792 742.361 152.372 744.74 162.118" stroke="black" stroke-width="4.11" stroke-miterlimit="10"/>
<path d="M725.595 177.543C722.244 177.46 717.891 176.99 716.312 173.735L724.786 164.782C726.854 162.589 728.077 159.785 728.253 156.835C728.59 151.884 727.983 144.028 732.933 138.801" stroke="black" stroke-width="4.11" stroke-miterlimit="10"/>
<path d="M732.842 165.15C731.454 163.681 731.386 161.577 732.688 160.45C733.99 159.322 736.17 159.601 737.557 161.071C738.944 162.539 739.014 164.644 737.712 165.771C736.41 166.898 734.229 166.62 732.842 165.15Z" fill="black"/>
<path d="M733.675 236.348L740.059 206.715" stroke="black" stroke-width="4.11" stroke-miterlimit="10"/>
<path d="M571.823 369.714L612.972 401.929C563.464 474.214 600.935 487.482 600.935 487.482C608.203 488.814 615.542 489.759 622.92 490.312C658.705 492.783 695.415 483.941 724.911 464.137C784.617 424.03 836.619 343.76 808.885 273.873C806.552 267.962 803.7 262.249 800.362 256.797C797.486 252.058 793.824 247.798 789.519 244.184C781.985 237.869 772.706 233.771 762.798 232.383C752.89 230.994 742.774 232.374 733.665 236.356C730.178 237.88 726.88 239.773 723.833 241.999C708.242 253.423 694.066 269.659 681.846 286.698C670.996 302.106 661.231 318.191 652.619 334.844C650.24 339.39 648.083 343.686 646.176 347.623C628.891 340.93 614.397 329.561 600.915 317.28C617.219 346.416 571.823 369.714 571.823 369.714Z" fill="#434242"/>
<path d="M600.617 393.28C601.407 393.861 602.225 394.469 603.044 395.05" stroke="black" stroke-width="4.11" stroke-miterlimit="10"/>
<path d="M722.273 270.812C711.359 290.82 700.445 310.864 689.531 330.945C681.297 346.103 667.382 355.461 647.785 348.279C626.464 340.46 609.265 325.515 593.356 310.283C577.447 295.052 561.327 280.484 538.359 276.557C508.67 271.476 480.579 286.966 460.356 306.54C458.8 308.033 457.816 309.985 457.562 312.079C457.309 314.174 457.801 316.29 458.96 318.083C459.703 319.23 460.696 320.211 461.87 320.958C463.045 321.705 464.374 322.201 465.766 322.411C467.16 322.622 468.583 322.543 469.941 322.18C471.299 321.817 472.559 321.178 473.636 320.305C483.218 312.478 498.809 301.156 509.652 301.008" stroke="black" stroke-width="4.11" stroke-miterlimit="10"/>
<path d="M539.235 327.865C535.903 329.995 531.281 332.355 527.429 332.355" stroke="black" stroke-width="4.11" stroke-miterlimit="10"/>
<path d="M496.536 304.891C489.429 308.256 486.839 318.103 491.856 323.985C498.217 331.543 506.188 337.716 515.237 342.093C525.137 346.823 531.493 343.937 541.238 338.166" stroke="black" stroke-width="4.11" stroke-miterlimit="10"/>
<path d="M512.984 313.714C512.984 313.714 498.905 317.052 499.281 330.135C499.306 330.693 499.41 331.245 499.589 331.776" stroke="black" stroke-width="4.11" stroke-miterlimit="10"/>
<path d="M522.932 321.955C522.932 321.955 504.047 333.637 513.032 340.985" stroke="black" stroke-width="4.11" stroke-miterlimit="10"/>
<path d="M158.138 367.741C180.383 426.279 242.66 427.93 249.786 427.93C246.801 421.909 245.992 411.334 252.531 392.801C248.15 386.677 245.845 379.411 245.926 371.988C246.007 364.566 248.47 357.348 252.984 351.311C252.897 351.238 252.849 351.136 252.772 351.062C249.657 350.881 246.567 350.434 243.537 349.726C232.79 347.273 211.604 341.889 194.79 334.31C183.388 329.156 170.089 337.417 171.061 349.467C171.061 349.624 171.061 349.772 171.119 349.947C168.893 349.946 166.699 350.459 164.725 351.443C162.751 352.428 161.054 353.854 159.779 355.602C158.505 357.35 157.69 359.365 157.404 361.479C157.118 363.592 157.369 365.742 158.138 367.741Z" fill="#22A39F"/>
<path d="M443.6 505.038C451.092 517.347 462.754 527.83 474.021 536.976C513.687 569.117 565.506 585.437 617.508 586.073C669.683 585.437 721.695 569.062 761.544 537.207C887.456 436.543 864.701 317.688 844.333 262.654C843.616 260.751 842.645 258.944 841.444 257.278C839.852 255.048 837.784 253.165 835.377 251.755C832.971 250.343 830.28 249.436 827.481 249.091C816.791 250.502 807.084 258.993 808.798 272.141C808.798 272.648 809.01 273.349 809.058 273.856C836.774 343.744 784.752 424.013 725.085 464.12C698.015 482.311 664.868 491.254 631.934 490.674H631.558C628.734 490.618 625.912 490.493 623.093 490.296C604.594 489.005 586.615 484.764 568.809 479.628C547.912 473.644 527.246 466.388 506.368 461.308C499.03 459.519 491.673 457.795 484.277 456.182C480.009 455.343 475.644 455.055 471.296 455.324C445.651 456.984 427.633 478.817 443.6 505.038Z" fill="#D7E8F0"/>
<path d="M437.263 505.038C444.755 517.347 456.427 527.83 467.694 536.976C508.939 570.427 563.359 586.764 617.537 586.073C669.712 585.437 721.724 569.062 761.573 537.207C887.456 436.543 864.7 317.688 844.333 262.654C843.615 260.751 842.645 258.944 841.444 257.278C839.851 255.048 837.784 253.165 835.377 251.755C832.971 250.343 830.279 249.436 827.481 249.091C816.791 250.502 807.084 258.993 808.798 272.141C808.798 272.648 809.01 273.349 809.058 273.856C836.773 343.744 784.752 424.013 725.085 464.12C698.015 482.311 664.868 491.254 631.934 490.673H631.558C626.596 490.747 621.661 490.622 616.757 490.295C598.258 489.005 580.288 484.763 562.473 479.628C541.575 473.644 520.909 466.388 500.032 461.308C492.703 459.519 485.336 457.795 477.95 456.181C475.754 455.752 473.532 455.465 471.296 455.324C442.463 453.471 420.006 476.696 437.263 505.038Z" fill="#22A39F" fill-opacity="0.5"/>
<path d="M608.841 585.904L596.168 603.072C596.168 603.072 519.484 605.93 477.517 639.657C469.755 645.899 474.397 658.023 484.527 658.023C487.068 658.031 489.528 657.176 491.471 655.607C501.38 647.641 539.235 622.6 624.865 621.844C708.3 621.097 740.3 645.816 749.15 654.824C750.159 655.841 751.376 656.65 752.724 657.201C754.072 657.75 755.523 658.03 756.989 658.023H758.636C769.036 658.023 773.437 645.447 765.223 639.343C730.189 613.26 651.656 604.943 651.656 604.943L638.251 585.581" fill="#434242"/>
<path d="M269.47 490.71C269.47 490.71 245.983 512.072 253.311 578.3C253.846 583.028 255.563 587.564 258.319 591.521L260.871 595.209C265.056 601.209 271.366 605.558 278.638 607.453C293.979 611.464 321.809 620.758 338.999 638.368C346.26 645.827 340.857 657.979 330.207 657.979C328.221 657.984 326.264 657.519 324.512 656.624C322.76 655.73 321.265 654.434 320.163 652.852C313.162 642.766 291.966 621.348 240.84 621.799C183.176 622.307 159.948 644.259 152.504 653.719C151.476 655.038 150.141 656.11 148.604 656.849C147.068 657.589 145.373 657.975 143.654 657.979C141.499 657.974 139.392 657.368 137.591 656.234C135.791 655.101 134.375 653.489 133.517 651.596C132.66 649.703 132.398 647.611 132.763 645.578C133.129 643.544 134.105 641.657 135.575 640.147C158.061 616.756 185.564 608.034 200.741 604.798C208.366 603.224 215.102 598.979 219.625 592.895C223.088 588.202 225.059 582.649 225.297 576.907C226.145 556.374 226.588 506.531 212.056 490.728" fill="#434242"/>
<path d="M568.616 479.654C527.313 460.458 482.486 447.863 438.409 436.006C394.053 424.076 349.264 413.666 304.34 403.884C286.39 399.984 268.276 396.508 250.412 392.11" stroke="black" stroke-width="4.11" stroke-miterlimit="10"/>
<path d="M529.865 332.09H529.837H529.817" stroke="black" stroke-width="4.11" stroke-miterlimit="10"/>
<path d="M534.497 329.591C537.088 332.043 546.333 345.145 548.654 347.496C561.404 360.578 574.947 372.93 589.215 384.487C592.807 387.345 596.611 390.295 600.617 393.283C601.407 393.864 602.225 394.472 603.044 395.053C630.2 414.784 665.639 433.777 698.381 421.607C699.248 421.302 700.095 420.952 700.933 420.592C751.153 399.064 786.255 345.145 789.317 293.098C789.423 291.402 789.481 289.714 789.5 288.046C789.77 273.819 787.574 259.593 773.321 252.088" stroke="black" stroke-width="4.11" stroke-miterlimit="10"/>
<path d="M808.808 273.671L808.606 272.159C805.409 247.615 841.81 239.335 850.448 262.653C870.806 317.678 893.571 436.505 767.63 537.188C686.343 602.198 554.74 602.65 473.761 536.975C462.494 527.838 450.832 517.337 443.33 505.028C424.35 473.901 453.336 448.943 486.03 456.605" stroke="black" stroke-width="4.11" stroke-miterlimit="10"/>
<path d="M608.841 585.904L596.168 603.072C596.168 603.072 519.484 605.93 477.517 639.657C469.755 645.899 474.397 658.023 484.527 658.023C487.068 658.031 489.528 657.176 491.471 655.607C501.38 647.641 539.235 622.6 624.865 621.844C708.3 621.097 740.3 645.816 749.15 654.824C750.159 655.841 751.376 656.65 752.724 657.201C754.072 657.75 755.523 658.03 756.989 658.023H758.636C769.036 658.023 773.437 645.447 765.223 639.343C730.189 613.26 651.656 604.943 651.656 604.943L638.251 585.581" stroke="black" stroke-width="4.11" stroke-miterlimit="10"/>
<path d="M651.656 333.372C619.511 325.074 606.27 281.657 600.935 252.467" stroke="black" stroke-width="4.11" stroke-miterlimit="10"/>
<path d="M681.875 286.725C672.945 285.606 664.464 282.313 657.243 277.16C650.022 272.007 644.302 265.168 640.63 257.295C639.861 255.729 639.488 254.013 639.538 252.283C639.588 250.553 640.061 248.86 640.919 247.337C644.424 241.123 649.653 233.922 648.411 226.473C647.515 221.217 642.999 217.52 637.818 216.331C635.192 215.671 632.426 215.717 629.825 216.46C628.266 216.883 626.824 217.632 625.605 218.654C624.386 219.677 623.42 220.945 622.776 222.37C621.514 225.2 623.016 228.003 625.337 229.847C627.658 231.691 630.374 232.346 633.205 233.083C633.571 233.185 634.572 233.388 635.68 233.59" stroke="black" stroke-width="4.11" stroke-miterlimit="10"/>
<path d="M250.451 392.092C250.451 392.092 187.085 379.387 175.183 361.085C172.952 357.749 171.561 353.961 171.119 350.021" stroke="black" stroke-width="4.11" stroke-miterlimit="10"/>
<path d="M562.251 360.837C451.728 349.597 326.981 351.257 326.981 351.257H256.97C252.446 351.263 247.937 350.755 243.537 349.745C232.79 347.292 211.604 341.917 194.79 334.329C183.388 329.175 170.089 337.436 171.061 349.496C171.061 349.643 171.061 349.8 171.119 349.975C168.897 349.976 166.709 350.49 164.739 351.472C162.769 352.455 161.075 353.877 159.801 355.62C158.528 357.362 157.711 359.373 157.421 361.482C157.132 363.591 157.378 365.735 158.138 367.733C181.751 429.867 250.451 427.921 250.451 427.921C259.233 428.17 267.997 428.502 276.789 428.935C354.243 432.54 431.013 442.95 506.166 461.325C527.044 466.406 547.71 473.652 568.607 479.645C586.422 484.799 604.421 489.013 622.92 490.304C658.705 492.784 695.415 483.933 724.911 464.128C789.519 420.72 845.123 330.217 800.362 256.752C784.56 230.825 748.775 223.726 723.833 242C688.654 267.77 660.554 317.973 646.138 347.587" stroke="black" stroke-width="4.11" stroke-miterlimit="10"/>
<path d="M159.602 490.71H313.412" stroke="black" stroke-width="4.11" stroke-miterlimit="10"/>
<path d="M344.459 460.965C344.436 453.082 341.156 445.529 335.336 439.953C329.514 434.379 321.625 431.236 313.393 431.212H159.563C151.328 431.233 143.438 434.375 137.614 439.951C131.791 445.525 128.51 453.081 128.487 460.965" stroke="black" stroke-width="4.11" stroke-miterlimit="10"/>
<path d="M125.463 471.513C125.456 474.037 125.969 476.537 126.975 478.87C127.98 481.204 129.458 483.322 131.322 485.106C133.186 486.891 135.4 488.304 137.838 489.266C140.275 490.227 142.887 490.718 145.522 490.709H327.529C332.085 490.296 336.29 488.189 339.24 484.839C342.189 481.489 343.648 477.164 343.302 472.796C342.957 468.427 340.834 464.361 337.392 461.476C333.948 458.589 329.459 457.112 324.891 457.361H142.884C139.653 457.356 136.468 458.1 133.604 459.531C130.739 460.962 128.28 463.036 126.436 465.576C125.792 467.494 125.463 469.498 125.463 471.513Z" fill="#22A39F" fill-opacity="0.5"/>
<path d="M125.463 471.513C125.455 474.036 125.97 476.537 126.975 478.869C127.98 481.202 129.458 483.322 131.322 485.106C133.186 486.89 135.401 488.303 137.838 489.265C140.275 490.226 142.887 490.717 145.522 490.709H327.529C330.2 490.765 332.856 490.309 335.34 489.37C337.824 488.429 340.088 487.024 341.997 485.236C343.906 483.447 345.424 481.312 346.459 478.954C347.495 476.597 348.029 474.066 348.029 471.508C348.029 468.95 347.495 466.419 346.459 464.061C345.424 461.703 343.906 459.568 341.997 457.779C340.088 455.991 337.824 454.586 335.34 453.646C332.856 452.707 330.2 452.251 327.529 452.307H145.522C141.285 452.306 137.156 453.588 133.728 455.971C130.298 458.355 127.746 461.716 126.436 465.575C125.792 467.494 125.464 469.497 125.463 471.513Z" stroke="black" stroke-width="4.11" stroke-miterlimit="10"/>
<path d="M601.282 251.783L601.647 254.743C601.815 256.086 602.49 257.324 603.546 258.223C604.602 259.121 605.965 259.618 607.377 259.62H627.379C628.792 259.618 630.154 259.121 631.211 258.223C632.266 257.324 632.941 256.086 633.109 254.743L635.69 233.537C634.582 233.334 633.581 233.131 633.215 233.03C630.383 232.292 627.639 231.665 625.347 229.794C623.055 227.922 621.495 225.184 622.785 222.316C623.43 220.893 624.395 219.623 625.615 218.601C626.834 217.579 628.275 216.829 629.834 216.406C632.436 215.663 635.201 215.618 637.827 216.277L638.434 211.225C638.524 210.453 638.442 209.671 638.194 208.931C637.948 208.191 637.54 207.51 637 206.931C636.46 206.351 635.797 205.887 635.058 205.569C634.317 205.251 633.515 205.086 632.704 205.084H602.013C601.203 205.087 600.402 205.254 599.663 205.572C598.924 205.891 598.263 206.355 597.724 206.934C597.185 207.513 596.779 208.194 596.532 208.933C596.285 209.673 596.204 210.453 596.293 211.225L597.006 216.987" stroke="black" stroke-width="4.11" stroke-miterlimit="10"/>
<path d="M598.614 230.161L598.643 230.364" stroke="black" stroke-width="4.11" stroke-miterlimit="10"/>
<path d="M600.116 242.341V242.259" stroke="black" stroke-width="4.11" stroke-miterlimit="10"/>
<path d="M599.827 242.339C599.913 242.325 600.002 242.325 600.087 242.339C600.209 242.326 600.332 242.326 600.453 242.339C601.701 242.344 602.902 242.797 603.818 243.608C604.734 244.419 605.298 245.531 605.399 246.723C605.499 247.913 605.129 249.097 604.361 250.039C603.594 250.981 602.484 251.613 601.253 251.808C600.722 251.91 600.175 251.91 599.644 251.808C597.241 251.441 595.046 250.28 593.443 248.526C591.306 245.161 589.821 241.453 589.061 237.582C589.048 237.543 589.048 237.501 589.061 237.462C588.474 234.609 588.25 231.699 588.397 228.795C588.397 227.55 588.56 226.315 588.714 225.107C589.008 223.086 589.973 221.21 591.466 219.754C592.959 218.298 594.901 217.34 597.006 217.021C597.112 217.021 597.237 217.021 597.343 216.966C601.387 216.486 607.06 217.952 608.109 222.323C609.072 226.269 604.604 229.653 600.935 229.957C600.935 229.957 599.972 230.077 598.614 230.16C595.898 230.335 591.382 230.307 588.397 228.795C587.957 228.578 587.544 228.315 587.164 228.011" stroke="black" stroke-width="4.11" stroke-miterlimit="10"/>
<path d="M595.609 230.374H596.274H601.407H603.67C605.2 230.379 606.669 230.944 607.778 231.955C608.887 232.964 609.55 234.342 609.631 235.805C609.706 237.227 609.227 238.624 608.287 239.727C607.348 240.831 606.016 241.562 604.546 241.78C597.901 242.803 590.313 243.015 589.013 237.317" stroke="black" stroke-width="4.11" stroke-miterlimit="10"/>
<path d="M269.47 490.71C269.47 490.71 245.983 512.072 253.311 578.3C253.846 583.028 255.563 587.564 258.319 591.521L260.871 595.209C265.056 601.209 271.366 605.558 278.638 607.453C293.979 611.464 321.809 620.758 338.999 638.368C346.26 645.827 340.857 657.979 330.207 657.979C328.221 657.984 326.264 657.519 324.512 656.624C322.76 655.73 321.265 654.434 320.163 652.852C313.162 642.766 291.966 621.348 240.84 621.799C183.176 622.307 159.948 644.259 152.504 653.719C151.476 655.038 150.141 656.11 148.604 656.849C147.068 657.589 145.373 657.975 143.654 657.979C141.499 657.974 139.392 657.368 137.591 656.234C135.791 655.101 134.375 653.489 133.517 651.596C132.66 649.703 132.398 647.611 132.763 645.578C133.129 643.544 134.105 641.657 135.575 640.147C158.061 616.756 185.564 608.034 200.741 604.798C208.366 603.224 215.102 598.979 219.625 592.895C223.088 588.202 225.059 582.649 225.297 576.907C226.145 556.374 226.588 506.531 212.056 490.728" stroke="black" stroke-width="4.11" stroke-miterlimit="10"/>
<path d="M318.294 335.913V337.407C318.294 347.632 326.903 349.393 334.338 349.568L478.22 352.776C484.527 352.924 489.833 347.65 489.968 341.049V340.772C489.968 334.318 484.999 328.924 478.778 328.786C478.778 328.786 398.281 326.61 335.956 324.969C334.762 328.583 331.873 331.368 328.252 333.553C325.252 335.27 321.785 336.092 318.294 335.913Z" stroke="black" stroke-width="4.11" stroke-miterlimit="10"/>
<path d="M241.813 190.145C241.805 191.828 242.208 193.487 242.988 194.995L307.335 321.29C308.09 322.756 309.171 324.047 310.502 325.071C311.833 326.095 313.381 326.828 315.039 327.219C317.696 327.87 320.509 327.596 322.974 326.444C324.951 325.513 326.614 324.067 327.773 322.274C328.933 320.481 329.542 318.412 329.532 316.302C329.528 315.784 329.489 315.267 329.417 314.753C329.246 313.61 328.888 312.5 328.358 311.462L264.02 185.148C262.857 182.881 260.927 181.058 258.545 179.975C256.162 178.894 253.467 178.615 250.898 179.188C248.328 179.759 246.038 181.148 244.398 183.126C242.759 185.104 241.869 187.555 241.871 190.08L241.813 190.145Z" stroke="black" stroke-width="4.11" stroke-miterlimit="10"/>
<path d="M762.757 177.68C762.834 177.422 762.94 177.173 763.027 176.924C763.114 176.675 763.239 176.39 763.316 176.113" stroke="black" stroke-width="4.11" stroke-linecap="round" stroke-linejoin="round"/>
<path d="M762.757 177.69L760.783 175.79L757.008 172.13" stroke="black" stroke-width="4.11" stroke-linecap="round" stroke-linejoin="round"/>
<path d="M740.541 182.69C740.541 182.69 738.008 189.927 728.33 190.416" stroke="black" stroke-width="4.11" stroke-miterlimit="10"/>
<path d="M783.587 199.642C792.254 203.838 802.086 194.765 801.403 187.288C800.96 182.161 802.173 178.622 806.131 174.905C806.391 174.656 806.632 174.398 806.863 174.149C808.37 172.58 809.349 170.613 809.676 168.504C810.002 166.395 809.659 164.24 808.692 162.32C806.892 158.309 803.011 155.958 805.707 151.634C806.891 149.764 807.754 147.726 808.269 145.595C808.807 142.77 808.706 139.867 807.973 137.082C807.24 134.298 805.893 131.696 804.022 129.451C800.054 124.841 793.593 126.113 788.286 124.499C781.902 122.554 778.917 115.98 772.214 113.961C768.863 112.956 765.752 113.408 762.401 114.136C759.579 114.772 756.748 115.482 754.004 116.312C751.259 117.142 748.755 117.852 746.011 117.068C742.419 116.063 739.655 112.901 735.745 112.873C731.835 112.845 728.831 115.049 727.078 118.128C724.305 122.96 724.286 129.985 726.895 134.153C729.592 138.468 735.235 140.293 740.088 141.224C746.29 142.442 752.704 142.764 758.982 143.299L762.632 144.156C764.021 144.57 765.181 145.491 765.86 146.722C766.539 147.953 766.681 149.392 766.253 150.721C763.995 158.162 760.888 165.341 756.989 172.13" stroke="black" stroke-width="4.11" stroke-miterlimit="10"/>
<path d="M757.008 200.702C757.008 200.702 737.902 214.098 727.011 206.713C716.119 199.328 722.273 177.679 722.273 177.679" stroke="black" stroke-width="4.11" stroke-linecap="round" stroke-linejoin="round"/>
<path d="M622.005 195.835C622.005 195.835 630.123 190.58 624.962 185.214C619.8 179.848 626.676 172.767 626.676 172.767" stroke="black" stroke-width="4.11" stroke-miterlimit="10"/>
<path d="M614.513 196.747C614.513 196.747 609.14 193.271 612.587 189.712C616.035 186.154 611.441 181.414 611.441 181.414" stroke="black" stroke-width="4.11" stroke-miterlimit="10"/>
<path d="M476.034 213.825C454.281 213.825 436.647 196.941 436.647 176.115C436.647 155.288 454.281 138.405 476.034 138.405C497.786 138.405 515.42 155.288 515.42 176.115C515.42 196.941 497.786 213.825 476.034 213.825Z" fill="#22A39F"/>
<path d="M476 170.471C473.796 170.471 471.999 172.262 471.999 174.5C471.999 176.632 473.796 178.444 476 178.444C478.204 178.444 480.001 176.632 480.001 174.5C480.001 172.262 478.204 170.471 476 170.471ZM485.906 191.553C484.558 192.363 481.606 191.127 478.204 187.929C479.316 186.672 480.407 185.307 481.434 183.879C483.159 183.715 484.873 183.459 486.569 183.112C487.66 187.674 487.254 190.807 485.906 191.553M484.387 179.317L485.007 178.23C485.243 178.849 485.478 179.467 485.628 180.064C485.05 180.191 484.408 180.298 483.745 180.405L484.387 179.317ZM470.394 177.697L468.661 174.5L470.394 171.303C471.036 170.173 471.721 169.171 472.341 168.169C473.497 168.105 474.716 168.105 476 168.105C477.284 168.105 478.503 168.105 479.659 168.169C480.279 169.171 480.964 170.173 481.606 171.303L483.339 174.5L481.606 177.697C480.964 178.827 480.279 179.829 479.659 180.831C478.503 180.895 477.284 180.895 476 180.895C474.716 180.895 473.497 180.895 472.341 180.831C471.721 179.829 471.036 178.827 470.394 177.697M476 163.373C476.407 163.842 476.834 164.332 477.262 164.908L474.738 164.908C475.166 164.332 475.593 163.842 476 163.373ZM476 185.627C475.593 185.158 475.166 184.668 474.738 184.092L477.262 184.092C476.834 184.668 476.407 185.158 476 185.627ZM466.115 157.447C467.442 156.637 470.394 157.873 473.796 161.071C472.684 162.328 471.593 163.693 470.566 165.121C468.811 165.291 467.078 165.547 465.431 165.888C464.34 161.326 464.746 158.193 466.115 157.447ZM467.613 169.683L466.993 170.77C466.757 170.151 466.522 169.533 466.372 168.936C466.95 168.809 467.592 168.702 468.255 168.595L467.613 169.683M464.511 154.654C461.366 156.445 461.023 161.156 462.35 166.656C456.915 168.254 453 170.898 453 174.5C453 178.102 456.915 180.746 462.35 182.344C461.023 187.844 461.366 192.555 464.511 194.346C467.634 196.136 471.892 194.09 476 190.189C480.108 194.09 484.366 196.136 487.511 194.346C490.634 192.555 490.977 187.844 489.65 182.344C495.085 180.746 499 178.102 499 174.5C499 170.898 495.085 168.254 489.65 166.656C490.977 161.156 490.634 156.445 487.511 154.654C484.366 152.864 480.108 154.91 476 158.811C471.892 154.91 467.634 152.864 464.511 154.654ZM465.131 174.5C464.404 176.099 463.762 177.697 463.227 179.317C458.734 177.975 456.209 176.056 456.209 174.5C456.209 172.944 458.734 171.025 463.227 169.683C463.762 171.303 464.404 172.901 465.131 174.5ZM486.869 174.5C487.596 172.901 488.238 171.303 488.773 169.683C493.266 171.025 495.791 172.944 495.791 174.5C495.791 176.056 493.266 177.975 488.773 179.317C488.238 177.697 487.596 176.099 486.869 174.5ZM467.613 179.317L468.255 180.405C467.592 180.298 466.95 180.191 466.372 180.064C466.522 179.467 466.757 178.849 466.993 178.23L467.613 179.317M473.796 187.929C470.394 191.127 467.442 192.363 466.115 191.553C464.746 190.807 464.34 187.674 465.431 183.112C467.078 183.453 468.811 183.709 470.566 183.879C471.593 185.307 472.684 186.672 473.796 187.929M484.387 169.683L483.745 168.595C484.408 168.702 485.05 168.809 485.628 168.936C485.478 169.533 485.243 170.151 485.007 170.77L484.387 169.683ZM478.204 161.071C481.606 157.873 484.558 156.637 485.906 157.447C487.254 158.193 487.66 161.326 486.569 165.888C484.873 165.541 483.159 165.285 481.434 165.121C480.407 163.693 479.316 162.328 478.204 161.071V161.071Z" fill="#F3EFE0"/>
<g opacity="0.72">
<path opacity="0.72" d="M377.865 160.504C365.888 160.504 356.179 151.209 356.179 139.741C356.179 128.274 365.888 118.978 377.865 118.978C389.842 118.978 399.552 128.274 399.552 139.741C399.552 151.209 389.842 160.504 377.865 160.504Z" fill="#22A39F"/>
<path opacity="0.72" d="M368.457 143.419C367.92 142.895 367.472 142.295 367.128 141.639C366.51 140.509 366.343 139.201 366.661 137.962C366.978 136.722 367.757 135.636 368.852 134.909C369.567 134.436 370.387 134.128 371.248 134.009C372.108 133.891 372.986 133.966 373.811 134.226C373.857 133.063 374.298 131.945 375.066 131.043C375.834 130.14 376.888 129.501 378.069 129.222C379.249 128.943 380.493 129.039 381.612 129.497C382.73 129.953 383.663 130.746 384.269 131.756C385.449 134.038 385.907 136.602 385.589 139.132C385.48 140.38 385.242 141.615 384.876 142.82C384.693 143.437 383.73 146.969 383.075 147.079C378.771 147.771 371.876 146.803 368.457 143.419Z" fill="white"/>
</g>
<path d="M408.942 237.791L419.251 258.662C422.99 266.23 419.612 275.266 411.708 278.845L389.91 288.715C382.005 292.294 372.567 289.06 368.829 281.492L358.52 260.622C354.782 253.054 358.16 244.017 366.064 240.439L387.862 230.569C395.767 226.99 405.205 230.223 408.942 237.791Z" fill="#22A39F"/>
<path d="M294.325 169.337C293.167 171.359 292.326 173.534 291.831 175.791C290.949 179.92 291.202 184.198 292.566 188.204C293.93 192.211 296.358 195.81 299.612 198.648C302.193 200.833 305.477 202.538 308.086 204.825C309.99 206.398 311.392 208.453 312.131 210.753C312.266 211.54 312.596 212.283 313.094 212.92C314.616 214.487 316.108 211.998 317.428 211.574C319.554 210.912 321.86 211.02 323.908 211.878C329.295 214.035 335.293 214.341 340.888 212.746C346.483 211.151 351.329 207.751 354.606 203.126C357.882 198.5 359.386 192.931 358.864 187.365C358.342 181.798 355.824 176.576 351.739 172.583C347.704 168.646 342.427 166.129 337.294 163.565C332.807 161.288 328.338 158.863 323.466 157.499C312.044 154.226 299.853 159.675 294.325 169.337Z" fill="#22A39F"/>
<path d="M310.351 188.275L312.214 184.754L308.693 182.891L306.83 186.412L305.069 185.481L309.726 176.678L311.487 177.609L309.624 181.131L313.145 182.993L315.008 179.472L316.769 180.403L312.112 189.207L310.351 188.275ZM315.633 191.069L319.359 184.027L316.894 182.723L317.825 180.962L324.339 184.408L323.408 186.169L321.119 184.958L317.394 192.001L315.633 191.069ZM320.915 193.864L325.572 185.06L327.333 185.992L326.631 193.282L326.807 193.375L332.614 188.786L334.375 189.717L329.718 198.521L327.958 197.589L330.845 192.131L330.669 192.038L326.404 195.415L325.347 194.856L325.739 189.43L325.563 189.337L322.676 194.795L320.915 193.864ZM336.761 202.246L331.479 199.452L336.136 190.649L337.896 191.58L334.171 198.623L337.692 200.485L336.761 202.246ZM330.849 172.529L324.657 174.436L326.565 180.628L324.39 182.182L321.488 172.76L330.91 169.857L330.849 172.529ZM328.677 181.746L334.869 179.838L332.962 173.647L335.136 172.093L338.038 181.515L328.616 184.417L328.677 181.746V181.746Z" fill="#F3EFE0"/>
<g opacity="0.54">
<path opacity="0.54" d="M277.925 50.094C278.062 51.7084 278.322 53.3108 278.705 54.8884L283.039 72.8858C284.368 78.4178 285.86 84.208 289.982 88.2464C297.686 95.7699 310.494 94.0457 321.203 91.7684L347.493 86.1811C353.531 84.8995 359.665 83.581 365.077 80.7136C370.489 77.8462 375.188 73.1532 376.44 67.3538C377.403 63.0758 376.373 58.6502 375.391 54.3905L371.423 37.1122C370.104 31.4512 368.621 25.4766 364.355 21.3553C356.757 14.0254 344.132 15.6942 333.635 17.8793L306.709 23.4851C290.473 26.8412 276.635 34.0512 277.925 50.094Z" fill="#22A39F" fill-opacity="0.5"/>
<path opacity="0.54" d="M314.182 50.5744C313.056 51.5766 312.225 52.8452 311.775 54.2522C311.323 55.6601 311.267 57.1565 311.611 58.5912C311.956 60.0258 312.69 61.3479 313.737 62.4257C314.785 63.5026 316.111 64.2965 317.582 64.7271L325.594 67.0782L333.606 69.4292C335.076 69.8598 336.639 69.9124 338.138 69.5814C339.635 69.2504 341.016 68.5488 342.142 67.5447C343.267 66.5416 344.096 65.2729 344.547 63.865C344.997 62.458 345.054 60.9616 344.709 59.527L342.783 51.7084L340.905 43.8991C340.563 42.4635 339.831 41.1404 338.783 40.0617C337.735 38.9839 336.41 38.1882 334.94 37.7567C333.469 37.3243 331.906 37.2717 330.408 37.6018C328.908 37.9328 327.527 38.6354 326.403 39.6394L320.268 45.1069L314.182 50.5744Z" fill="white"/>
</g>
<path d="M845.72 657.981H14.15" stroke="black" stroke-width="4.11" stroke-miterlimit="10"/>
<path d="M388.439 266.539C387.906 266.798 387.371 266.835 386.835 266.648C386.298 266.464 385.9 266.105 385.641 265.571L384.725 263.688L387.55 262.315L388.007 263.257L391.773 261.426L390.858 259.543L386.151 261.832C385.617 262.091 385.082 262.127 384.546 261.941C384.01 261.757 383.612 261.398 383.352 260.864L381.979 258.04C381.72 257.506 381.683 256.971 381.869 256.434C382.054 255.898 382.413 255.501 382.947 255.242L388.595 252.496C389.129 252.236 389.664 252.199 390.2 252.383C390.736 252.57 391.134 252.93 391.393 253.463L392.309 255.346L389.485 256.719L389.027 255.777L385.261 257.608L386.177 259.491L390.884 257.203C391.417 256.943 391.952 256.906 392.489 257.09C393.025 257.277 393.423 257.637 393.682 258.17L395.055 260.994C395.314 261.528 395.351 262.062 395.166 262.598C394.981 263.135 394.621 263.533 394.087 263.793L388.439 266.539ZM400.677 260.589C400.144 260.848 399.609 260.885 399.073 260.698C398.537 260.514 398.139 260.155 397.879 259.621L396.964 257.738L399.788 256.365L400.246 257.307L404.011 255.476L403.096 253.593L398.389 255.882C397.855 256.141 397.321 256.177 396.785 255.991C396.248 255.807 395.85 255.448 395.591 254.914L394.218 252.09C393.958 251.556 393.921 251.021 394.107 250.484C394.292 249.948 394.652 249.551 395.185 249.292L400.834 246.546C401.367 246.286 401.901 246.249 402.437 246.434C402.974 246.62 403.372 246.98 403.632 247.513L404.547 249.396L401.723 250.769L401.265 249.827L397.5 251.658L398.415 253.541L403.122 251.253C403.656 250.993 404.19 250.956 404.725 251.141C405.263 251.327 405.661 251.687 405.92 252.22L407.293 255.044C407.553 255.578 407.589 256.113 407.403 256.649C407.218 257.185 406.859 257.583 406.326 257.843L400.677 260.589ZM376.201 272.489C375.667 272.748 375.132 272.785 374.596 272.598C374.06 272.414 373.662 272.055 373.402 271.521L369.741 263.99C369.481 263.456 369.445 262.921 369.63 262.384C369.816 261.848 370.175 261.451 370.708 261.192L376.357 258.446C376.89 258.186 377.425 258.149 377.962 258.333C378.498 258.52 378.896 258.88 379.155 259.413L380.07 261.296L377.246 262.669L376.788 261.728L373.023 263.558L375.769 269.207L379.535 267.376L379.077 266.435L381.901 265.062L382.817 266.944C383.076 267.478 383.113 268.012 382.928 268.548C382.742 269.085 382.383 269.483 381.849 269.743L376.201 272.489Z" fill="#F3EFE0"/>
</g>
<defs>
<clipPath id="clip0_9_144">
<rect width="881" height="676" fill="white" transform="matrix(-1 0 0 1 881 0)"/>
</clipPath>
</defs>
</svg>
