<svg width="152" height="153" viewBox="0 0 152 153" fill="none" xmlns="http://www.w3.org/2000/svg">
<path d="M76 35.9702H75.2653C65.0687 35.9702 55.1253 37.0785 45.562 39.1812L46.474 39.0102C37.8888 40.7711 29.566 43.6298 21.7107 47.5158L22.306 47.2498C16.1205 50.1996 10.5866 54.3553 6.02933 59.4732L5.985 59.5238C2.23301 63.619 0.104832 68.9428 0 74.4958L0 74.5212C0.120333 80.3098 2.36867 85.5475 5.99133 89.5122L5.97867 89.4932C10.4655 94.5561 15.9088 98.6821 21.9957 101.634L22.2997 101.767C29.7614 105.446 37.6553 108.174 45.7963 109.887L46.4677 110.007C55.119 111.939 65.0623 113.047 75.259 113.047H76.038H76H76.7347C86.9313 113.047 96.8747 111.939 106.438 109.836L105.526 110.007C114.111 108.246 122.434 105.387 130.289 101.501L129.694 101.767C135.88 98.8175 141.413 94.6617 145.971 89.5438L146.015 89.4932C149.767 85.3981 151.895 80.0742 152 74.5212V74.4958C151.898 68.9267 149.765 63.5867 146.002 59.4795L146.015 59.4985C141.528 54.4356 136.085 50.3095 129.998 47.3575L129.694 47.2245C122.232 43.5458 114.338 40.818 106.197 39.1052L105.526 38.9848C96.0664 36.9373 86.4133 35.9181 76.7347 35.9448H75.9557H75.9937L76 35.9702ZM56.24 81.9755C55.4103 82.7292 54.4667 83.3752 53.4407 83.8818L53.371 83.9135C52.3888 84.3805 51.3673 84.7599 50.3183 85.0472L50.1853 85.0788C49.0079 85.4962 47.7675 85.7083 46.5183 85.7058H46.3663H46.3727H33.8833L31.8567 98.1382H22.6923L30.799 55.8632H48.3613L48.754 55.8568C51.034 55.8568 53.2253 56.2558 55.252 56.9905L55.119 56.9462C56.9873 57.6302 58.577 58.6942 59.8563 60.0432L59.8627 60.0495C60.971 61.4618 61.7627 63.1718 62.1047 65.0465L62.1173 65.1162C62.4931 67.3391 62.4609 69.6118 62.0223 71.8232L62.0413 71.7028C61.8341 72.7516 61.5331 73.7796 61.142 74.7745L61.1863 74.6542C60.8232 75.5873 60.4348 76.4676 60.021 77.2952C59.5059 78.1227 58.9359 78.9524 58.311 79.7842C57.7221 80.5786 57.049 81.307 56.3033 81.9565L56.2843 81.9692L56.24 81.9755ZM82.6627 85.7058L86.241 67.8332C86.393 67.1555 86.4817 66.3828 86.4817 65.5848L86.469 65.0908V65.1162C86.4631 64.4526 86.2128 63.8145 85.766 63.3238C85.3215 62.9383 84.8017 62.6494 84.2397 62.4752L84.208 62.4688C83.3508 62.2036 82.458 62.0712 81.5607 62.0762L81.2377 62.0825H81.2503H74.119L69.4577 85.7058H60.4453L68.552 44.6658H77.5643L75.392 55.8568H83.4987L83.961 55.8505C86.0573 55.8505 88.0967 56.1102 90.0473 56.5915L89.8763 56.5535C91.4533 56.9018 92.8277 57.6428 93.936 58.6562L93.9297 58.6498C94.9324 59.4353 95.6201 60.5544 95.8677 61.8038L95.874 61.8355C96.1305 63.4968 96.0443 65.1931 95.6207 66.8198L95.6397 66.7312L91.9093 85.6932L82.6627 85.7058ZM132.709 71.8738C132.455 73.0202 132.189 73.9512 131.873 74.8695L131.93 74.6732C131.588 75.6802 131.17 76.5542 130.657 77.3648L130.688 77.3142C130.281 78.241 129.753 79.1099 129.118 79.8982L129.137 79.8728C128.516 80.6455 127.851 81.3295 127.129 81.9565L127.11 81.9755C126.28 82.7292 125.337 83.3752 124.311 83.8818L124.241 83.9135C123.259 84.3805 122.237 84.7599 121.188 85.0472L121.055 85.0788C119.878 85.4962 118.638 85.7083 117.388 85.7058H117.236H117.243H104.753L102.581 98.1128H93.5687L101.675 55.8378H119.086L119.548 55.8315C121.86 55.8315 124.083 56.2305 126.141 56.9715L126.002 56.9272C127.819 57.5858 129.352 58.6498 130.549 60.0178L130.562 60.0305C131.765 61.4365 132.62 63.1782 132.956 65.0908L132.968 65.1542C133.332 67.4204 133.246 69.7359 132.715 71.9688L132.74 71.8485L132.709 71.8738ZM115.609 62.0762H109.415L106.166 79.4865H111.916C113.5 79.4865 115.058 79.3408 116.565 79.0685L116.407 79.0938C117.699 78.8658 118.851 78.4035 119.865 77.7512L119.827 77.7702C120.688 76.9975 121.41 76.1045 121.974 75.1038L121.999 75.0532C122.651 73.8625 123.139 72.4755 123.386 71.0125L123.399 70.9365C123.713 69.5901 123.79 68.1991 123.627 66.8262L123.633 66.8832C123.549 65.9204 123.196 65.0007 122.613 64.2295L122.62 64.2422C121.877 63.549 120.993 63.024 120.029 62.7032L119.979 62.6905C118.571 62.2322 117.094 62.0263 115.615 62.0825H115.634L115.609 62.0762ZM44.7387 62.0762H38.5447L35.283 79.4865H41.0463C42.6297 79.4865 44.1877 79.3408 45.695 79.0685L45.5367 79.0938C46.8287 78.8658 47.9813 78.4035 48.9947 77.7512L48.9567 77.7702C49.818 76.9975 50.54 76.1045 51.1037 75.1038L51.129 75.0532C51.7813 73.8625 52.269 72.4755 52.516 71.0125L52.5287 70.9365C52.8431 69.5901 52.9203 68.1991 52.7567 66.8262L52.763 66.8832C52.6792 65.9204 52.3258 65.0007 51.7433 64.2295L51.7497 64.2422C51.0069 63.549 50.1234 63.024 49.1593 62.7032L49.1087 62.6905C47.7013 62.2322 46.224 62.0263 44.745 62.0825H44.764L44.7387 62.0762Z" fill="black"/>
</svg>
