<svg width="126" height="127" viewBox="0 0 126 127" fill="none" xmlns="http://www.w3.org/2000/svg">
<path d="M118.5 7.46518C113.919 2.86114 108.406 0.562256 101.956 0.562256H23.9125C17.4625 0.562256 11.95 2.86114 7.36875 7.46518C2.7875 12.0692 0.5 17.6091 0.5 24.0912V102.523C0.5 109.005 2.7875 114.545 7.36875 119.149C11.95 123.753 17.4625 126.052 23.9125 126.052H42.125C43.3125 126.052 44.2063 126.008 44.8063 125.927C45.5043 125.786 46.1344 125.412 46.5938 124.865C47.1875 124.237 47.4875 123.326 47.4875 122.133L47.4438 116.574C47.4188 113.032 47.4063 110.23 47.4063 108.157L45.5312 108.484C44.3437 108.704 42.8438 108.798 41.025 108.773C39.1293 108.738 37.2396 108.547 35.375 108.201C33.39 107.833 31.5214 106.993 29.925 105.752C28.2531 104.481 27.0061 102.728 26.35 100.727L25.5375 98.8426C24.8527 97.3561 23.9923 95.958 22.975 94.6782C21.8125 93.1519 20.6312 92.1218 19.4375 91.5753L18.875 91.1671C18.4828 90.8847 18.126 90.5557 17.8125 90.1872C17.5131 89.8452 17.2666 89.4598 17.0813 89.044C16.9188 88.6609 17.0562 88.3468 17.4875 88.1019C17.925 87.8506 18.7062 87.7313 19.85 87.7313L21.475 87.9825C22.5562 88.1961 23.9 88.8493 25.4938 89.936C27.1066 91.041 28.4539 92.4937 29.4375 94.1883C30.6875 96.4181 32.1875 98.1202 33.95 99.2948C35.7125 100.463 37.4875 101.054 39.275 101.054C41.0625 101.054 42.6063 100.915 43.9125 100.645C45.1757 100.383 46.4032 99.9694 47.5688 99.4141C48.0563 95.7711 49.3813 92.9572 51.55 90.9975C48.7398 90.7206 45.9547 90.2292 43.2188 89.5277C40.5487 88.7906 37.9809 87.7207 35.575 86.3432C33.0578 84.9659 30.8344 83.105 29.0313 80.8661C27.3 78.6865 25.875 75.8286 24.7625 72.2924C23.6562 68.7498 23.1 64.6608 23.1 60.0317C23.1 53.4428 25.2375 47.8338 29.5188 43.1983C27.5188 38.2488 27.7063 32.6901 30.0875 26.5409C31.6625 26.0447 33.9938 26.4152 37.0813 27.6401C40.1688 28.8649 42.4313 29.9138 43.8688 30.7806C45.3063 31.66 46.4563 32.3948 47.325 32.9916C52.4061 31.5705 57.6571 30.8562 62.9313 30.8685C68.3 30.8685 73.5 31.5783 78.5438 32.9916L81.6312 31.0318C84.0061 29.5988 86.5112 28.3958 89.1125 27.4391C91.9875 26.3462 94.175 26.0509 95.7 26.5409C98.1375 32.6963 98.35 38.2488 96.3438 43.2046C100.625 47.8338 102.769 53.4428 102.769 60.0379C102.769 64.6671 102.213 68.7687 101.1 72.3301C99.9938 75.8977 98.5562 78.7556 96.7937 80.91C94.9588 83.1202 92.7262 84.9634 90.2125 86.3432C87.5875 87.813 85.0375 88.8745 82.5687 89.5277C79.833 90.2315 77.0478 90.725 74.2375 91.0038C77.05 93.4534 78.4625 97.3163 78.4625 102.599V122.133C78.4625 123.056 78.5937 123.804 78.8687 124.375C78.9952 124.651 79.1754 124.898 79.3987 125.102C79.622 125.305 79.8839 125.462 80.1687 125.562C80.7687 125.776 81.2938 125.914 81.7563 125.964C82.2188 126.027 82.8813 126.046 83.7438 126.046H101.956C108.406 126.046 113.919 123.747 118.5 119.143C123.075 114.545 125.369 108.999 125.369 102.517V24.0912C125.369 17.6091 123.075 12.0692 118.494 7.46518H118.5Z" fill="#F3EFE0"/>
</svg>
