<svg width="134" height="144" viewBox="0 0 134 144" fill="none" xmlns="http://www.w3.org/2000/svg">
<g clip-path="url(#clip0_10_18)">
<path d="M114.173 122.696H94.3189V89.2821C94.3189 81.3143 94.1865 71.0571 83.9926 71.0571C73.6515 71.0571 72.0692 79.7387 72.0692 88.7022V122.694H52.2152V53.9813H71.2751V63.3717H71.5421C73.4495 59.8668 76.2059 56.9834 79.5176 55.0288C82.8293 53.0741 86.5724 52.1213 90.3481 52.2719C110.472 52.2719 114.182 66.4964 114.182 85.0015L114.173 122.696V122.696ZM29.8121 44.5892C23.4486 44.5904 18.2891 39.0475 18.2881 32.2092C18.287 25.3709 23.4444 19.8263 29.8079 19.8252C36.1713 19.8235 41.3308 25.3664 41.3319 32.2047C41.3324 35.4886 40.1191 38.6382 37.9587 40.9608C35.7983 43.2833 32.8679 44.5885 29.8121 44.5892M39.7396 122.697H19.8641V53.9813H39.739V122.696L39.7396 122.697ZM124.072 0.00999216H9.8874C4.49076 -0.0552578 0.0650986 4.59043 -0.000854492 10.3898V133.607C0.0630049 139.409 4.48815 144.059 9.88688 143.999H124.072C129.482 144.071 133.924 139.421 133.999 133.607V10.3802C133.922 4.56962 129.479 -0.0755078 124.072 0.000429658" fill="#0A66C2"/>
</g>
<defs>
<clipPath id="clip0_10_18">
<rect width="134" height="144" fill="white"/>
</clipPath>
</defs>
</svg>
