<svg width="126" height="127" viewBox="0 0 126 127" fill="none" xmlns="http://www.w3.org/2000/svg">
<path d="M13.6501 56.0945L43.9951 25.697L52.8676 34.622C51.6076 39.0845 53.6551 43.967 57.7501 46.3295V75.4145C54.6001 77.1995 52.5001 80.612 52.5001 84.497C52.5001 87.2818 53.6063 89.9525 55.5754 91.9216C57.5446 93.8908 60.2153 94.997 63.0001 94.997C65.7848 94.997 68.4555 93.8908 70.4247 91.9216C72.3938 89.9525 73.5001 87.2818 73.5001 84.497C73.5001 80.612 71.4001 77.1995 68.2501 75.4145V49.8995L79.1176 60.872C78.7501 61.6595 78.7501 62.552 78.7501 63.497C78.7501 66.2818 79.8563 68.9525 81.8254 70.9216C83.7946 72.8908 86.4653 73.997 89.2501 73.997C92.0348 73.997 94.7055 72.8908 96.6747 70.9216C98.6438 68.9525 99.7501 66.2818 99.7501 63.497C99.7501 60.7122 98.6438 58.0415 96.6747 56.0724C94.7055 54.1033 92.0348 52.997 89.2501 52.997C88.3051 52.997 87.4126 52.997 86.6251 53.3645L73.1326 39.872C73.7844 37.4404 73.5317 34.8548 72.4213 32.5955C71.311 30.3361 69.4184 28.5564 67.0951 27.587C64.8376 26.747 62.4751 26.537 60.3751 27.1145L51.4501 18.242L55.5976 14.147C59.6926 9.9995 66.3076 9.9995 70.4026 14.147L112.35 56.0945C116.498 60.1895 116.498 66.8045 112.35 70.8995L70.4026 112.847C66.3076 116.995 59.6926 116.995 55.5976 112.847L13.6501 70.8995C9.50255 66.8045 9.50255 60.1895 13.6501 56.0945Z" fill="black"/>
</svg>
