<svg width="160" height="161" viewBox="0 0 160 161" fill="none" xmlns="http://www.w3.org/2000/svg">
<path d="M130.55 88.3571C126.154 88.3628 121.816 89.3682 117.865 91.2971C116.628 89.2443 115.673 87.0345 115.025 84.7271C114.653 82.9183 114.567 81.0624 114.77 79.2271C115.197 77.2074 115.752 75.2168 116.43 73.267C116.405 73.012 116.125 71.807 113.31 71.767C110.495 71.727 108.07 72.3021 107.81 73.0471C107.321 74.4078 106.929 75.8012 106.635 77.217C104.305 82.9646 101.438 88.4791 98.07 93.6871C96.1833 90.5941 95.4073 86.9504 95.87 83.3571C96.2974 81.3374 96.8518 79.3468 97.53 77.3971C97.505 77.1421 97.225 75.937 94.41 75.897C91.595 75.857 89.17 76.4321 88.91 77.1771C88.65 77.9221 88.32 79.6771 87.735 81.3471C87.15 83.0171 80.32 98.2771 78.53 102.212C77.61 104.212 76.815 105.842 76.255 106.942C76.2285 107.013 76.195 107.082 76.155 107.147L75.39 108.607V108.632C75.005 109.322 74.595 109.962 74.39 109.962C74.0325 108.534 74.0497 107.037 74.44 105.617C75.44 100.322 77.89 92.092 77.865 91.807C77.865 91.652 78.325 90.2221 76.28 89.4821C75.8057 89.2564 75.2731 89.1832 74.7556 89.2728C74.238 89.3623 73.7609 89.6101 73.39 89.982C73.21 89.982 73.085 90.417 73.085 90.417C73.085 90.417 75.31 81.162 68.84 81.162C66.3205 81.6689 63.9277 82.6744 61.8025 84.1195C59.6773 85.5647 57.8626 87.4202 56.465 89.5771C54.725 90.5221 51.02 92.5421 47.055 94.7171C45.555 95.5621 43.985 96.4071 42.53 97.2171C42.43 97.1171 42.325 96.9871 42.225 96.8871C34.35 88.4971 19.875 82.577 20.5 71.352C20.73 67.262 22.135 56.522 48.295 43.477C69.825 32.867 86.96 35.807 89.925 42.327C94.17 51.637 80.745 68.922 58.5 71.427C56.0391 71.9263 53.4974 71.8661 51.0628 71.2507C48.6283 70.6354 46.3632 69.4807 44.435 67.872C43.26 66.592 43.08 66.517 42.645 66.772C41.93 67.157 42.39 68.307 42.645 68.972C43.4936 70.5078 44.6415 71.8579 46.0207 72.9425C47.3999 74.0272 48.9825 74.8244 50.675 75.2871C59.4262 77.1781 68.5502 76.274 76.76 72.702C90.26 67.487 100.76 52.987 97.68 40.842C94.585 28.517 74.13 24.452 54.77 31.342C42.6438 35.4224 31.4392 41.8496 21.795 50.257C11.13 60.232 9.44502 68.897 10.135 72.532C12.635 85.422 30.39 93.807 37.495 100.032C37.174 100.215 36.8507 100.393 36.525 100.567C32.97 102.332 19.42 109.417 16.025 116.907C12.19 125.407 16.64 131.482 19.58 132.302C24.0101 133.362 28.6607 133.013 32.8826 131.303C37.1045 129.593 40.687 126.607 43.13 122.762C45.2103 119.573 46.4891 115.929 46.8573 112.139C47.2256 108.349 46.6724 104.527 45.245 100.997C45.2209 100.94 45.1871 100.888 45.145 100.842L47.93 99.2071C49.6223 98.2067 51.336 97.2431 53.07 96.317C52.0291 99.3193 51.4181 102.454 51.255 105.627C50.9016 110.491 52.3901 115.31 55.425 119.127C55.8868 119.525 56.4229 119.827 57.0023 120.015C57.5816 120.204 58.1927 120.276 58.8 120.227C61.8 120.227 63.175 117.727 64.68 114.757C66.52 111.127 68.18 106.907 68.18 106.907C68.18 106.907 66.11 118.312 71.735 118.312C73.78 118.312 75.85 115.652 76.775 114.312V114.337L76.93 114.082L77.26 113.547V113.497C78.08 112.067 79.92 108.817 82.655 103.422C86.185 96.467 89.585 87.7721 89.585 87.7721C89.913 89.6829 90.3656 91.5703 90.94 93.422C91.7636 95.6667 92.7374 97.8533 93.855 99.967C93.035 101.117 92.525 101.757 92.525 101.757L92.55 101.782C91.885 102.652 91.17 103.597 90.375 104.517C88.0097 107.117 85.8151 109.868 83.805 112.752C83.5064 113.236 83.4037 113.816 83.518 114.374C83.6323 114.931 83.9549 115.424 84.42 115.752C85.4726 116.3 86.6723 116.498 87.845 116.317C89.6123 116.217 91.35 115.82 92.985 115.142C94.5651 114.586 96.0557 113.803 97.41 112.817C98.8062 111.85 99.93 110.54 100.673 109.012C101.417 107.485 101.755 105.793 101.655 104.097C101.498 101.961 100.952 99.872 100.045 97.932C100.3 97.572 100.545 97.217 100.785 96.857C103.628 92.614 106.19 88.1895 108.455 83.612C108.783 85.5229 109.236 87.4103 109.81 89.2621C110.489 91.2018 111.325 93.083 112.31 94.8871C109.04 97.4031 106.464 100.71 104.825 104.497C103.215 109.152 104.465 111.247 106.825 111.732C108.116 111.821 109.408 111.557 110.56 110.967C112.254 110.41 113.851 109.59 115.29 108.537C116.808 107.641 118.079 106.382 118.989 104.873C119.9 103.364 120.421 101.652 120.505 99.8921C120.392 98.1349 119.995 96.4076 119.33 94.7771C123.646 93.0911 128.325 92.5536 132.91 93.2171C145.08 94.6471 147.485 102.242 147.025 105.442C146.809 106.576 146.353 107.652 145.687 108.595C145.022 109.539 144.162 110.329 143.165 110.912C142.32 111.447 142.04 111.627 142.115 112.012C142.215 112.577 142.615 112.547 143.34 112.447C145.174 111.877 146.793 110.764 147.982 109.256C149.171 107.747 149.874 105.914 150 103.997C150.385 96.4971 143.225 88.272 130.565 88.347L130.55 88.3571ZM36.65 119.997C32.61 124.397 26.985 126.057 24.555 124.652C21.945 123.152 22.97 116.652 27.93 111.992C30.8723 109.344 34.0524 106.972 37.43 104.907C38.02 104.547 38.89 104.037 39.93 103.407L40.21 103.252L40.825 102.867C41.7112 105.836 41.7915 108.987 41.0578 111.998C40.3241 115.008 38.8029 117.769 36.65 119.997V119.997ZM66.055 99.9971C64.65 103.422 61.71 112.197 59.92 111.707C58.385 111.297 57.42 104.647 59.615 98.0771C60.7233 94.9143 62.3376 91.9525 64.395 89.307C66.595 86.852 69.025 86.032 69.61 87.032C69.0763 91.5064 67.8781 95.8762 66.055 99.9971V99.9971ZM90.32 111.607C89.73 111.912 89.17 112.107 88.915 111.967C88.735 111.867 89.17 111.467 89.17 111.467C89.17 111.467 92.215 108.192 93.415 106.712C94.105 105.842 94.915 104.822 95.795 103.667V103.997C95.795 107.907 92.01 110.542 90.325 111.617L90.32 111.607ZM109.04 107.337C108.605 107.032 108.68 106.007 110.14 102.812C111.155 100.76 112.573 98.9338 114.31 97.4421C114.576 98.1989 114.715 98.9948 114.72 99.7971C114.74 101.505 114.194 103.171 113.167 104.536C112.141 105.901 110.691 106.887 109.045 107.342L109.04 107.337Z" fill="#CD6799"/>
</svg>
