<svg width="350" height="65" viewBox="0 0 350 65" fill="none" xmlns="http://www.w3.org/2000/svg">
<path d="M6.26772 16.8741C14.6247 8.50199 28.2063 8.41085 36.6775 16.668C36.9654 16.9459 37.1952 17.2776 37.3539 17.6441C37.5125 18.0106 37.5968 18.4047 37.6019 18.8037C37.607 19.2028 37.5328 19.5989 37.3836 19.9693C37.2344 20.3397 37.013 20.6771 36.7323 20.9621C36.4516 21.2472 36.1171 21.4743 35.7479 21.6303C35.3787 21.7863 34.9822 21.8682 34.5811 21.8713C34.18 21.8744 33.7822 21.7987 33.4107 21.6484C33.0391 21.4981 32.701 21.2762 32.4159 20.9955C26.3353 15.0684 16.5866 15.1344 10.5874 21.1431C4.58881 27.1525 4.58881 36.8515 10.5874 42.8602C16.5866 48.8696 26.3353 48.9356 32.4159 43.0085C32.9951 42.459 33.7685 42.1584 34.5688 42.1719C35.369 42.1854 36.1317 42.5119 36.6918 43.0806C37.252 43.6493 37.5645 44.4146 37.5618 45.2109C37.5591 46.0071 37.2414 46.7703 36.6775 47.3353C28.2063 55.5931 14.6247 55.502 6.26772 47.1299C-2.08924 38.7578 -2.08924 25.2455 6.26772 16.8741V16.8741ZM82.0053 0.00476073L82.0983 0H82.291L82.4654 0.0102016L82.6575 0.032645L82.7395 0.0462471L82.883 0.0748115L83.0368 0.114938C83.1866 0.156424 83.3308 0.210152 83.4702 0.273402L83.6206 0.347534L83.7635 0.427106L83.8852 0.503958L112.995 19.7217C113.17 19.8353 113.334 19.9679 113.485 20.1195L113.563 20.2011L113.623 20.2678L113.71 20.3719L113.836 20.5419L113.905 20.6466L113.989 20.7881L114.056 20.9159L114.118 21.0499C114.219 21.2784 114.289 21.5144 114.328 21.7538L114.333 21.781C114.355 21.9225 114.367 22.064 114.369 22.2061V41.7591C114.369 42.1197 114.303 42.4772 114.175 42.8146L114.162 42.8466C114.129 42.9317 114.092 43.0152 114.051 43.0969L113.97 43.2479L113.851 43.4383L113.792 43.5219L113.686 43.66L113.588 43.7736L113.49 43.877C113.334 44.0354 113.162 44.1742 112.978 44.2918L83.9043 63.4871C83.609 63.6857 83.2754 63.8339 82.9186 63.9203L82.7299 63.9584L82.5535 63.9842L82.3239 64.0019L82.2022 64.0047C82.142 64.0047 82.0825 64.0026 82.0238 63.9992L81.8016 63.9788L81.6649 63.957C81.3629 63.904 81.0708 63.8054 80.7988 63.6646L80.781 63.6544C80.6759 63.5994 80.5743 63.5381 80.4768 63.4708L51.3795 44.2619C51.2984 44.2082 51.2201 44.1503 51.1451 44.0885L51.0193 43.9796L50.8976 43.8613L50.7397 43.6865L50.6508 43.575L50.5531 43.439C50.517 43.3854 50.4825 43.3308 50.4499 43.2751L50.3589 43.1084L50.2872 42.9568C50.1202 42.5772 50.0341 42.1673 50.0342 41.753V22.2421C50.0356 21.8953 50.0971 21.5464 50.2209 21.2111L50.3015 21.0159L50.3248 20.9656L50.3979 20.8214L50.471 20.6942L50.5531 20.565L50.6146 20.4786L50.7103 20.3535L50.8128 20.2338L50.9174 20.1229L51.0268 20.0189C51.1525 19.904 51.2879 19.8 51.4315 19.7081L80.4925 0.52096L80.6326 0.431186L80.7953 0.341413L80.9444 0.269321L81.0859 0.209472C81.3058 0.122741 81.5352 0.062243 81.7695 0.0292445L82.006 0.00476073H82.0053ZM67.6402 35.6524L58.56 41.7299L79.1568 55.3279V43.3601L67.6409 35.6524H67.6402ZM96.7628 35.6518L85.2462 43.3601V55.3279L105.843 41.7292L96.7628 35.6518V35.6518ZM82.2022 25.9065L73.0967 32.001L82.2022 38.0947L91.3077 32.0003L82.2022 25.9065V25.9065ZM56.121 27.9421V36.0605L62.1858 32.001L56.121 27.9421ZM108.277 27.9455L102.218 32.001L108.277 36.0571V27.9455V27.9455ZM79.1568 8.67133L58.5587 22.2721L67.6409 28.3502L79.1568 20.6425V8.67133V8.67133ZM85.2462 8.67405V20.6425L96.7621 28.3502L105.844 22.2721L85.2462 8.67405V8.67405ZM145.743 10.5348H132.505C131.698 10.5348 130.923 10.854 130.352 11.422C129.781 11.9901 129.46 12.7606 129.46 13.564V50.44C129.46 51.2434 129.781 52.0138 130.352 52.5819C130.923 53.15 131.698 53.4692 132.505 53.4692H145.743C157.66 53.4692 167.32 43.8579 167.32 32.0016C167.32 20.1461 157.66 10.5348 145.743 10.5348V10.5348ZM135.547 47.4108V16.5932H145.743C154.297 16.5932 161.231 23.4915 161.231 32.0016C161.231 40.5118 154.297 47.4108 145.743 47.4108H135.547V47.4108ZM206.636 10.5348C207.415 10.5356 208.163 10.8329 208.728 11.3655C209.293 11.8981 209.631 12.6257 209.673 13.3988C209.716 14.1719 209.459 14.9318 208.956 15.5225C208.453 16.1132 207.741 16.4897 206.968 16.5748L206.636 16.5932H185.85V28.9725H198.694C199.473 28.9717 200.223 29.2682 200.789 29.801C201.355 30.3338 201.694 31.0623 201.737 31.8365C201.779 32.6107 201.522 33.3716 201.017 33.9625C200.513 34.5535 199.8 34.9295 199.025 35.0132L198.694 35.0308H185.85L185.85 47.4108H206.636C207.386 47.4108 208.11 47.6863 208.669 48.1845C209.227 48.6826 209.582 49.3683 209.663 50.1101L209.681 50.44C209.681 51.1863 209.404 51.9063 208.903 52.462C208.403 53.0177 207.714 53.3701 206.968 53.4515L206.636 53.4692H182.808C182.058 53.4691 181.334 53.1936 180.776 52.6955C180.217 52.1973 179.863 51.5117 179.781 50.7698L179.764 50.44V13.564C179.764 12.8177 180.041 12.0977 180.541 11.542C181.042 10.9863 181.731 10.6339 182.477 10.5525L182.808 10.5348H206.636ZM243.702 10.5348C251.232 10.5348 257.337 16.6082 257.337 24.0995C257.337 31.3998 251.541 37.3527 244.278 37.6533L243.702 37.6649H230.858L230.861 50.44C230.861 51.1862 230.584 51.9061 230.084 52.4618C229.583 53.0175 228.894 53.3699 228.148 53.4515L227.816 53.4692C227.066 53.4689 226.343 53.1933 225.784 52.6952C225.226 52.1971 224.872 51.5115 224.79 50.7698L224.771 50.44V13.564C224.772 12.8176 225.049 12.0975 225.549 11.5418C226.05 10.986 226.74 10.6338 227.485 10.5525L227.816 10.5348H243.702ZM230.858 31.6065H243.702C247.869 31.6065 251.247 28.2461 251.247 24.0995C251.247 20.1019 248.106 16.8339 244.145 16.6054L243.702 16.5932H230.858V31.6065V31.6065ZM296.652 10.5348C297.43 10.5356 298.179 10.8329 298.744 11.3655C299.308 11.8981 299.647 12.6257 299.689 13.3988C299.732 14.1719 299.475 14.9318 298.972 15.5225C298.469 16.1132 297.757 16.4897 296.984 16.5748L296.652 16.5932H275.867L275.866 28.9725H288.71C289.489 28.9715 290.239 29.2679 290.805 29.8007C291.371 30.3334 291.711 31.0619 291.753 31.8361C291.796 32.6104 291.539 33.3714 291.034 33.9624C290.53 34.5534 289.817 34.9295 289.042 35.0132L288.71 35.0308H275.866V47.4108H296.652C297.402 47.4108 298.126 47.6863 298.685 48.1845C299.243 48.6826 299.597 49.3683 299.679 50.1101L299.697 50.44C299.697 51.1863 299.42 51.9063 298.919 52.462C298.419 53.0177 297.729 53.3701 296.984 53.4515L296.652 53.4692H272.825C272.075 53.4691 271.351 53.1936 270.792 52.6955C270.234 52.1973 269.88 51.5117 269.798 50.7698L269.78 50.44V13.564C269.78 12.8178 270.057 12.0979 270.557 11.5422C271.058 10.9865 271.747 10.6341 272.493 10.5525L272.825 10.5348H296.652ZM314.788 13.564C314.788 10.7939 318.175 9.52555 320.021 11.4557L320.226 11.6924L343.908 41.6795L343.911 13.564C343.911 12.8177 344.188 12.0977 344.688 11.542C345.189 10.9863 345.878 10.6339 346.624 10.5525L346.955 10.5348C347.705 10.5349 348.429 10.8103 348.987 11.3083C349.546 11.8062 349.9 12.4918 349.982 13.2335L350 13.564V50.44C350 53.21 346.613 54.4777 344.767 52.5483L344.561 52.3116L320.875 22.319L320.877 50.44C320.877 51.1863 320.6 51.9063 320.1 52.462C319.599 53.0177 318.91 53.3701 318.164 53.4515L317.833 53.4692C317.083 53.4691 316.359 53.1936 315.8 52.6955C315.242 52.1973 314.888 51.5117 314.806 50.7698L314.788 50.44V13.564V13.564Z" fill="#F3EFE0"/>
</svg>
