<svg width="118" height="167" viewBox="0 0 118 167" fill="none" xmlns="http://www.w3.org/2000/svg">
<g clip-path="url(#clip0_12_63)">
<path d="M117.795 33.0376L107.082 152.76L58.9281 166.078L10.9067 152.778L0.205139 33.0376H117.795Z" fill="#E44D26"/>
<path d="M59 155.898L97.911 145.136L107.065 42.8279H59V155.898Z" fill="#F16529"/>
<path d="M38.1748 72.1999H59V57.5142H22.0867L22.4389 61.454L26.0572 101.924H59V87.2383H39.5203L38.1748 72.1999V72.1999ZM41.4927 109.267H26.715L28.7772 132.326L58.9322 140.676L59 140.658V125.379L58.9355 125.396L42.5408 120.98L41.4927 109.267Z" fill="#EBEBEB"/>
<path d="M11.1454 0.49707H18.6265V7.87051H25.47V0.49707H32.9515V22.8257H25.4705V15.3488H18.6269V22.8257H11.1459V0.49707H11.1454ZM42.7888 7.90177H36.2039V0.49707H56.8603V7.90177H50.2712V22.8257H42.7902V7.90177H42.7897H42.7888ZM60.1385 0.49707H67.9389L72.7373 8.34275L77.5311 0.49707H85.3347V22.8257H77.8841V11.7584L72.7373 19.6974H72.6082L67.4582 11.7584V22.8257H60.1385V0.49707ZM89.0577 0.49707H96.541V15.4453H107.061V22.8257H89.0572V0.49707H89.0577Z" fill="black"/>
<path d="M58.9493 101.924H77.0766L75.3674 120.97L58.9489 125.391V140.67L89.1278 132.326L89.3491 129.845L92.8089 91.1818L93.1679 87.2383H58.9493V101.924ZM58.9493 72.164V72.1999H94.5074L94.8024 68.8992L95.4735 61.454L95.8252 57.5142H58.9493V72.1645V72.164Z" fill="white"/>
</g>
<defs>
<clipPath id="clip0_12_63">
<rect width="118" height="166" fill="white" transform="translate(0 0.49707)"/>
</clipPath>
</defs>
</svg>
