<svg width="129" height="130" viewBox="0 0 129 130" fill="none" xmlns="http://www.w3.org/2000/svg">
<g clip-path="url(#clip0_12_75)">
<path d="M0 0.49707H129V129.497H0V0.49707Z" fill="#F7DF1E"/>
<path d="M33.919 108.299L43.7905 102.324C45.6953 105.701 47.4277 108.558 51.5834 108.558C55.5668 108.558 58.0787 107 58.0787 100.939V59.7207H70.2012V101.111C70.2012 113.666 62.8412 119.382 52.1029 119.382C42.4052 119.382 36.7761 114.359 33.9185 108.298M76.7858 107L86.6563 101.285C89.2549 105.528 92.6321 108.645 98.6064 108.645C103.63 108.645 106.833 106.134 106.833 102.67C106.833 98.5139 103.542 97.0415 98.0002 94.6177L94.9702 93.3177C86.2239 89.5953 80.4225 84.9191 80.4225 75.0475C80.4225 65.9551 87.3497 59.0273 98.1741 59.0273C105.881 59.0273 111.423 61.7122 115.406 68.726L105.966 74.788C103.888 71.0647 101.637 69.5927 98.1736 69.5927C94.623 69.5927 92.3716 71.8442 92.3716 74.788C92.3716 78.4247 94.623 79.8976 99.8183 82.1491L102.849 83.4477C113.154 87.8644 118.955 92.3668 118.955 102.497C118.955 113.409 110.383 119.383 98.8659 119.383C87.6092 119.383 80.3353 114.015 76.7853 107" fill="black"/>
</g>
<defs>
<clipPath id="clip0_12_75">
<rect width="129" height="129" fill="white" transform="translate(0 0.49707)"/>
</clipPath>
</defs>
</svg>
