<svg width="219" height="150" viewBox="0 0 219 150" fill="none" xmlns="http://www.w3.org/2000/svg">
<g clip-path="url(#clip0_12_87)">
<path d="M65.1482 98.8187L71.8038 120.373C73.2991 125.267 73.9228 128.684 73.673 130.631C77.313 120.9 79.8563 110.296 81.3033 98.8187H89.3062C85.8651 117.504 81.3264 131.082 75.6927 139.553C71.3033 146.08 66.4947 149.343 61.2584 149.343C59.8623 149.343 58.1411 148.922 56.0987 148.087V143.582C57.0966 143.728 58.2673 143.806 59.6138 143.806C62.0566 143.806 64.0254 143.131 65.5233 141.782C67.3168 140.139 68.2147 138.292 68.2147 136.245C68.2147 134.847 67.5145 131.978 66.1205 127.639L56.8472 98.8187H65.1478H65.1482ZM14.2106 85.5706L26.4011 122.695H26.4763L38.7416 85.5706H48.7626C50.9569 103.982 52.2529 120.827 52.6507 136.096H44.2021C43.9048 121.823 43.0814 108.401 41.7349 95.8281H41.6613L28.7959 136.096H22.362L9.57441 95.8281H9.49913C8.55041 107.903 7.95329 121.325 7.70435 136.096H0C0.497883 118.131 1.74387 101.291 3.73797 85.5706H14.211H14.2106Z" fill="#00758F"/>
<path d="M150.776 84.8207C163.889 84.8207 170.445 93.1827 170.445 109.898C170.445 118.982 168.473 125.843 164.534 130.478C163.824 131.325 163.039 132.057 162.212 132.735L171.492 137.315L171.483 137.314L168.188 142.993L156.103 135.955C154.1 136.548 151.896 136.844 149.494 136.844C143.056 136.844 138.246 134.971 135.067 131.229C131.576 127.091 129.832 120.575 129.832 111.694C129.832 102.662 131.8 95.8267 135.742 91.1855C139.331 86.94 144.343 84.8203 150.776 84.8203V84.8207ZM110.62 84.8942C115.307 84.8942 119.568 86.1459 123.407 88.6405L121.457 92.9769C118.172 91.5834 114.934 90.8836 111.74 90.8836C109.149 90.8836 107.153 91.5061 105.761 92.7587C104.361 94.0002 103.495 95.5978 103.495 97.5455C103.495 100.538 105.632 103.134 109.576 105.326C110.868 106.031 112.156 106.745 113.439 107.466L113.733 107.631L113.88 107.714L114.175 107.879L114.322 107.962L114.617 108.127C117.602 109.807 120.412 111.411 120.412 111.411C124.355 114.205 126.321 117.184 126.321 122.091C126.321 126.376 124.748 129.894 121.612 132.646C118.473 135.386 114.257 136.76 108.977 136.76C104.039 136.76 99.2532 135.179 94.6174 132.043L96.786 127.702C100.776 129.698 104.386 130.695 107.627 130.695C110.668 130.695 113.048 130.018 114.769 128.68C116.487 127.332 117.517 125.452 117.517 123.068C117.517 120.068 115.426 117.504 111.591 115.352C110.39 114.69 109.193 114.022 108 113.347L107.706 113.181C107.166 112.877 106.623 112.568 106.09 112.267L105.801 112.103C103.211 110.632 100.972 109.348 100.972 109.348C97.1381 106.548 95.2154 103.545 95.2154 98.5958C95.2154 94.5027 96.6492 91.1944 99.5124 88.6777C102.383 86.1553 106.085 84.8942 110.62 84.8942V84.8942ZM185.856 85.5704V129.881H201.784V136.096H177.778V85.5704H185.856ZM210.635 129.9V130.951H208.884V136.091H207.545V130.951H205.726V129.9H210.635H210.635ZM213.868 129.9L215.55 134.12L217.094 129.9H218.992V136.091H217.731V131.38L215.973 136.091H215.063L213.302 131.38H213.234V136.091H212.04V129.9H213.869H213.868ZM149.951 91.0343C142.223 91.0343 138.358 97.3999 138.358 110.123C138.358 117.41 139.382 122.695 141.427 125.989C143.321 129.037 146.287 130.558 150.326 130.558C158.054 130.558 161.919 124.143 161.919 111.319C161.919 104.133 160.895 98.8938 158.852 95.5983C156.956 92.5568 153.991 91.0343 149.951 91.0343H149.951Z" fill="#F29111"/>
<path d="M129.697 3.62781C132.26 -2.65922 141.223 2.10194 144.702 4.29809C145.554 4.84756 146.532 6.00839 147.509 6.43746C149.034 6.49723 150.558 6.61635 152.085 6.67996C154.95 7.35195 157.634 7.90099 159.891 9.18435C170.383 15.3514 177.213 21.6359 183.498 32.0164C184.841 34.2151 185.512 36.5944 186.609 38.9737C188.132 42.5202 189.843 46.2431 191.611 49.5967C192.402 51.1866 193.014 52.9545 194.113 54.2972C194.542 54.9111 195.76 55.0922 196.489 55.4589C198.503 56.4993 200.942 57.2892 202.836 58.5102C206.373 60.7115 209.793 63.3345 212.902 66.02C214.061 67.0566 214.85 68.5239 215.954 69.6203V70.1736C214.974 70.4737 213.998 70.7811 213.02 71.0275C210.885 71.5748 208.994 71.451 206.923 71.9987C205.644 72.3693 204.055 72.8582 202.712 72.9824L202.836 73.1071C203.626 75.3591 207.898 77.1907 209.852 78.5377C212.225 80.2471 214.424 82.3203 216.194 84.7013C216.805 85.3088 217.417 85.8617 218.025 86.4675C218.45 87.0815 218.57 87.8756 219 88.4229V88.6082C218.524 88.4404 218.181 88.1202 217.856 87.7855L217.663 87.5835C217.469 87.3829 217.273 87.1856 217.05 87.023C215.704 86.1051 214.367 85.007 213.02 84.1536C210.705 82.6875 208.021 81.8366 205.644 80.3649C204.3 79.5106 203.019 78.5377 201.738 77.56C200.576 76.7031 199.297 75.0577 198.568 73.8367C198.138 73.1621 198.079 72.3693 197.588 71.8813C197.675 71.0663 198.423 70.8242 199.178 70.6253L199.352 70.5796C199.613 70.5122 199.867 70.4447 200.09 70.3555C203.261 69.0115 207.042 68.5239 211.924 68.646C211.74 67.4224 208.69 65.8979 207.716 65.1652C205.761 63.7589 203.691 62.2915 201.617 61.0116C200.518 60.3413 198.625 59.852 197.408 59.3043C195.76 58.6323 192.099 57.9607 191.187 56.6808C189.636 54.6631 188.522 52.2565 187.441 49.8255L187.147 49.162C187.049 48.9409 186.95 48.7199 186.852 48.499C185.573 45.5715 183.986 42.5194 182.705 39.5219C182.035 38.0596 181.727 36.7763 180.994 35.3738C176.542 26.7676 169.954 19.5623 161.966 14.495C159.341 12.8462 156.414 11.3203 153.183 10.2833C151.352 9.73126 149.154 10.0365 147.203 9.613H145.919C144.823 9.30475 143.908 8.1452 143.053 7.53383C141.165 6.25388 139.273 5.39446 137.015 4.48125C136.224 4.11494 133.964 3.26192 133.175 3.93349C132.687 4.05602 132.439 4.24003 132.319 4.7293C131.833 5.45935 132.26 6.55914 132.563 7.23241C133.479 9.1835 134.759 10.3431 135.92 11.9919C136.954 13.4541 138.237 15.1029 138.97 16.6928C140.551 20.1105 141.287 23.8969 142.752 27.3141C143.295 28.5992 144.155 30.0614 144.946 31.2206C145.616 32.1406 146.834 32.8058 147.203 33.9704C147.938 35.1915 146.103 39.2204 145.678 40.5C144.089 45.5066 144.397 52.4661 146.227 56.8059L146.325 57.0347L146.422 57.2665C147.09 58.856 147.805 60.5676 149.582 61.012C149.704 60.8908 149.582 60.9544 149.824 60.8908C150.254 57.5317 150.375 54.2968 151.535 51.6686C152.205 50.0253 153.544 48.8636 154.461 47.5222C155.073 47.8876 155.073 48.9896 155.437 49.7188C156.231 51.6101 157.084 53.6837 158.062 55.5806C160.071 59.487 162.331 63.2743 164.892 66.6915C165.75 67.9121 166.967 69.2557 168.064 70.355C168.553 70.7807 169.101 71.0266 169.468 71.5744H169.588V71.7588C167.758 71.0855 166.598 69.1959 165.138 68.0927C162.391 66.0191 159.1 62.905 157.206 59.9169C156.414 58.2015 155.558 56.5574 154.704 54.8505V54.7271C154.339 55.2147 154.461 55.6988 154.279 56.4366C153.487 59.487 154.096 62.967 151.352 64.0642C148.24 65.3492 145.919 61.9906 144.946 60.4643C141.833 55.3983 140.981 46.8519 143.176 39.9531C143.663 38.4259 143.729 36.5944 144.581 35.3751C144.397 34.2727 143.546 33.9713 143.053 33.2959C142.199 32.1415 141.468 30.7966 140.8 29.5145C139.516 27.0101 138.602 24.0178 137.627 21.3319C137.199 20.2351 137.076 19.1341 136.649 18.0958C135.92 16.511 134.576 14.9211 133.54 13.519C132.137 11.5039 128.049 7.59829 129.697 3.62781V3.62781ZM149.703 15.5884C149.866 15.7515 150.063 15.8941 150.266 16.0345L150.512 16.2027C150.839 16.429 151.156 16.6672 151.35 16.9917C151.658 17.4212 151.715 17.8451 152.084 18.2755C152.084 19.7429 151.658 20.7184 150.798 21.3264C150.798 21.3264 150.739 21.3904 150.679 21.4502C150.191 20.4721 149.764 19.4991 149.273 18.5218C148.668 17.6688 147.813 16.9921 147.32 16.0174H147.202V15.8949C147.938 15.7135 148.668 15.5884 149.703 15.5884Z" fill="#00758F"/>
</g>
<defs>
<clipPath id="clip0_12_87">
<rect width="219" height="149" fill="white" transform="translate(0 0.49707)"/>
</clipPath>
</defs>
</svg>
