<svg width="380" height="53" viewBox="0 0 380 53" fill="none" xmlns="http://www.w3.org/2000/svg">
<path d="M53.6824 0V52.4455H0V0H53.6824ZM48.1925 5.36347H5.48996V47.082H48.1925V5.36347V5.36347ZM109.3 30.8401H103.517C102.677 35.9578 99.1681 38.9031 94.3254 38.9031C87.9002 38.9031 83.6995 34.0261 83.6995 26.2532C83.6995 18.576 87.7518 13.6034 93.9788 13.6034C99.0197 13.6034 102.331 16.5001 103.27 21.7149H109.052C107.916 14.0863 101.64 9.11289 93.7813 9.11289C84.3422 9.11289 77.8184 16.7415 77.8184 26.2532C77.8184 36.0542 84.4906 43.3928 93.9298 43.3928C101.788 43.3928 108.113 38.468 109.3 30.8401ZM135.831 30.8401C135.831 24.3216 131.235 18.2867 123.723 18.2867C116.212 18.2867 111.615 24.3216 111.615 30.8401C111.615 37.3579 116.212 43.3928 123.723 43.3928C131.235 43.3928 135.831 37.3579 135.831 30.8401ZM117.299 30.8401C117.299 25.6739 119.622 22.1971 123.723 22.1971C127.875 22.1971 130.197 25.6739 130.197 30.8401C130.197 35.9578 127.874 39.4824 123.723 39.4824C119.621 39.4824 117.299 35.9578 117.299 30.8394V30.8401ZM156.853 37.8408H156.705C155.519 41.1719 152.652 43.3928 148.897 43.3928C142.175 43.3928 138.517 37.5994 138.517 30.8401C138.517 24.0801 142.323 18.2867 148.896 18.2867C152.652 18.2867 155.519 20.459 156.705 23.7901H156.853V9.59652H162.141V42.9106H156.853V37.8408ZM150.626 22.1978C146.524 22.1978 144.201 25.6739 144.201 30.8401C144.201 35.9578 146.524 39.4824 150.625 39.4824C154.777 39.4824 157.051 35.9578 157.051 30.8394C157.051 25.6739 154.777 22.1978 150.625 22.1978H150.626ZM188.727 35.4263H183.34C182.747 37.3579 181.363 39.4824 178.151 39.4824C174.396 39.4824 171.776 36.9229 171.529 32.5296H189.172C189.913 24.1287 185.07 18.2867 177.706 18.2867C170.342 18.2867 166.142 24.1773 166.142 30.8401C166.142 37.5029 170.441 43.3928 177.805 43.3928C183.835 43.3928 187.69 40.2068 188.727 35.4263V35.4263ZM177.706 22.1978C181.314 22.1978 183.439 24.7081 183.785 28.6192H171.579C171.926 24.7081 174.099 22.1978 177.707 22.1978H177.706ZM204.47 22.4393L210.025 23.7422C216.449 25.191 219.662 28.4742 219.662 33.7368C219.662 39.2888 214.126 43.3928 206.219 43.3928C197.175 43.3928 192.283 37.2129 191.739 31.178H197.521C197.867 35.5234 201.475 38.9031 206.269 38.9031C210.618 38.9031 213.83 37.0686 213.83 33.9783C213.83 31.2737 211.755 29.8257 207.356 28.812L202.414 27.7012C195.742 26.1568 192.431 23.115 192.431 18.4796C192.431 12.879 198.065 9.11289 204.934 9.11289C213.633 9.11289 218.08 13.7484 218.673 19.494H212.891C212.446 15.535 209.036 13.6034 205.033 13.6034C201.129 13.6034 198.312 15.2449 198.312 18.0938C198.312 20.0791 199.637 21.1406 203.345 22.1514L204.47 22.4393V22.4393ZM240.449 37.8401H240.598V42.9106H245.885V18.7696H240.598V23.7908H240.449C239.263 20.459 236.396 18.2867 232.64 18.2867C226.068 18.2867 222.262 24.0801 222.262 30.8401C222.262 37.5994 225.92 43.3928 232.64 43.3928C236.396 43.3928 239.263 41.1719 240.449 37.8408V37.8401ZM227.946 30.8401C227.946 25.6739 230.318 22.1971 234.321 22.1971C238.324 22.1971 240.795 25.6739 240.795 30.8401C240.795 35.9578 238.324 39.4824 234.321 39.4824C230.368 39.4824 227.946 35.9578 227.946 30.8394V30.8401ZM256.657 28.4256V42.9106H251.271V18.7696H256.509V23.5008H256.608C257.646 20.1219 260.215 18.2867 263.823 18.2867C269.26 18.2867 271.928 21.9078 271.928 27.219V42.9099H266.541V28.7642C266.541 24.2744 264.91 22.2464 261.6 22.2464C258.288 22.2464 256.657 24.4673 256.657 28.4263V28.4256ZM293.962 37.8408H294.11V42.9106H299.398V9.5958H294.11V23.7908H293.962C292.776 20.459 289.91 18.2867 286.154 18.2867C279.581 18.2867 275.775 24.0801 275.775 30.8401C275.775 37.5994 279.432 43.3928 286.153 43.3928C289.91 43.3928 292.776 41.1719 293.962 37.8408V37.8408ZM281.459 30.8401C281.459 25.6739 283.781 22.1971 287.883 22.1971C292.035 22.1971 294.308 25.6739 294.308 30.8401C294.308 35.9578 292.035 39.4824 287.883 39.4824C283.781 39.4824 281.459 35.9578 281.459 30.8394V30.8401ZM318.027 18.2867C324.6 18.2867 328.405 24.0801 328.405 30.8401C328.405 37.5994 324.749 43.3928 318.027 43.3928C314.272 43.3928 311.405 41.1719 310.219 37.8408H310.07V42.9106H304.783V9.5958H310.07V23.7908H310.219C311.405 20.459 314.271 18.2867 318.027 18.2867H318.027ZM316.298 22.1978C312.146 22.1978 309.873 25.6739 309.873 30.8401C309.873 35.9578 312.146 39.4824 316.298 39.4824C320.399 39.4824 322.722 35.9578 322.722 30.8394C322.722 25.6739 320.399 22.1978 316.298 22.1978ZM343.228 18.2867C350.74 18.2867 355.337 24.3216 355.337 30.8401C355.337 37.3579 350.74 43.3928 343.228 43.3928C335.717 43.3928 331.12 37.3579 331.12 30.8401C331.12 24.3216 335.717 18.2867 343.228 18.2867V18.2867ZM362.059 18.7696L367.397 26.3011L372.735 18.7696H378.764L370.561 29.8736L380 42.9106H373.97L367.398 33.544L360.825 42.9106H354.746L364.235 29.9229L355.982 18.7696H362.061H362.059ZM343.228 22.1978C339.126 22.1978 336.804 25.6739 336.804 30.8401C336.804 35.9578 339.127 39.4824 343.228 39.4824C347.379 39.4824 349.702 35.9578 349.702 30.8394C349.702 25.6739 347.379 22.1978 343.228 22.1978Z" fill="#F3EFE0"/>
</svg>
