<svg width="114" height="162" viewBox="0 0 114 162" fill="none" xmlns="http://www.w3.org/2000/svg">
<g clip-path="url(#clip0_12_69)">
<path d="M56.9305 161.09L10.537 148.192L0.198181 32.0576H113.802L103.452 148.174L56.9305 161.09V161.09Z" fill="#264DE4"/>
<path d="M94.5919 140.78L103.436 41.553H57V151.217L94.5919 140.78V140.78Z" fill="#2965F1"/>
<path d="M23.8994 84.6257L25.1739 98.8691H57V84.6257H23.8994ZM21.338 55.7969L22.6308 70.0402H57V55.7969H21.338V55.7969ZM57 121.617L56.9376 121.634L41.0988 117.351L40.0861 105.991H25.8094L27.8017 128.355L56.9345 136.454L57 136.436V121.617Z" fill="#EBEBEB"/>
<path d="M26.9343 0.49707H44.159V7.7113H34.1376V14.9255H44.1598V22.1393H26.9343V0.49707ZM47.6043 0.49707H64.8295V6.77027H54.8077V8.02482H64.8295V22.4533H47.6048V15.8657H57.6265V14.6111H47.6039V0.49707H47.6043ZM68.2749 0.49707H85.5V6.77027H75.4782V8.02482H85.5V22.4533H68.2749V15.8657H78.2966V14.6111H68.2753V0.49707H68.2749Z" fill="black"/>
<path d="M90.0097 84.6257L92.5769 55.7969H56.951V70.0402H76.991L75.6969 84.6257H56.951V98.8691H74.4638L72.8126 117.342L56.9506 121.629V136.448L86.1065 128.355L86.3203 125.949L89.6628 88.4504L90.0097 84.6257V84.6257Z" fill="white"/>
</g>
<defs>
<clipPath id="clip0_12_69">
<rect width="114" height="161" fill="white" transform="translate(0 0.49707)"/>
</clipPath>
</defs>
</svg>
