<svg width="149" height="134" viewBox="0 0 149 134" fill="none" xmlns="http://www.w3.org/2000/svg">
<g clip-path="url(#clip0_12_78)">
<path d="M122.508 43.561C120.922 43.0157 119.323 42.5106 117.712 42.046C117.982 40.9377 118.232 39.8428 118.453 38.7671C122.083 21.1032 119.71 6.8728 111.603 2.18747C103.83 -2.3042 91.1176 2.37939 78.2791 13.5776C77.0138 14.6832 75.7766 15.8207 74.5687 16.989C73.76 16.2121 72.9371 15.4504 72.1003 14.7041C58.6449 2.73055 45.1581 -2.31586 37.0597 2.38289C29.2936 6.88855 26.994 20.2661 30.2627 37.0066C30.5879 38.6646 30.9551 40.314 31.3639 41.9533C29.4549 42.497 27.6127 43.0756 25.8498 43.6916C10.0744 49.2041 0 57.8427 0 66.8033C0 76.0579 10.8153 85.3405 27.246 90.9691C28.5781 91.4235 29.9213 91.8446 31.2743 92.232C30.8349 93.9975 30.4448 95.7751 30.1044 97.5625C26.9882 114.012 29.4217 127.074 37.1668 131.551C45.1662 136.174 58.5925 131.423 71.6655 119.969C72.7256 119.038 73.7623 118.08 74.7747 117.097C76.0829 118.362 77.4259 119.59 78.8024 120.78C91.4662 131.701 103.973 136.111 111.71 131.622C119.702 126.985 122.3 112.954 118.928 95.8825C118.662 94.5451 118.364 93.2143 118.034 91.8913C118.977 91.6113 119.903 91.3231 120.805 91.0233C137.886 85.3516 149 76.1815 149 66.8033C149 57.81 138.6 49.1131 122.508 43.561V43.561ZM118.803 84.9683C117.988 85.2384 117.152 85.4991 116.3 85.7529C114.415 79.7696 111.87 73.4078 108.755 66.8342C111.727 60.4175 114.174 54.1368 116.007 48.1926C117.531 48.6348 119.01 49.1009 120.436 49.5926C134.225 54.3503 142.635 61.3835 142.635 66.8033C142.635 72.576 133.552 80.0701 118.803 84.9683V84.9683ZM112.684 97.1215C114.175 104.67 114.387 111.495 113.399 116.831C112.512 121.625 110.728 124.821 108.521 126.101C103.826 128.826 93.7839 125.285 82.954 115.944C81.6737 114.838 80.4244 113.696 79.2075 112.52C83.4062 107.918 87.6021 102.569 91.6973 96.6268C98.9005 95.9863 105.706 94.9386 111.877 93.5089C112.174 94.7065 112.443 95.9111 112.684 97.1215V97.1215ZM50.7974 125.631C46.2098 127.254 42.5558 127.301 40.347 126.024C35.6471 123.308 33.6932 112.82 36.3583 98.7525C36.6751 97.0901 37.0379 95.4369 37.4461 93.7947C43.5493 95.148 50.305 96.1211 57.5251 96.7079C61.6482 102.522 65.9651 107.866 70.3158 112.545C69.3912 113.442 68.4447 114.316 67.4772 115.166C61.6959 120.23 55.9029 123.824 50.7974 125.631V125.631ZM29.3053 84.9327C22.0398 82.4436 16.0396 79.2091 11.927 75.6793C8.23109 72.5077 6.36568 69.3583 6.36568 66.8033C6.36568 61.3655 14.4542 54.4296 27.9451 49.7157C29.5823 49.144 31.2958 48.6045 33.0739 48.0981C34.9388 54.1765 37.3845 60.5319 40.3359 66.9585C37.346 73.4801 34.8654 79.9371 32.9825 86.0871C31.7475 85.7326 30.5214 85.3477 29.3053 84.9327V84.9327ZM36.5097 35.781C33.7095 21.4386 35.5691 10.6196 40.2492 7.90413C45.2337 5.01197 56.2562 9.13555 67.8742 19.4746C68.6317 20.1503 69.3771 20.8397 70.1097 21.5425C65.7806 26.2015 61.5032 31.5058 57.4168 37.2855C50.4091 37.9365 43.7012 38.9818 37.534 40.3824C37.1541 38.8577 36.8125 37.3236 36.5097 35.7816V35.781ZM100.782 51.6874C99.3249 49.1656 97.8142 46.6755 96.2505 44.219C101.005 44.8216 105.56 45.6213 109.837 46.599C108.553 50.7243 106.952 55.0369 105.068 59.4586C103.691 56.8398 102.262 54.2489 100.782 51.6874V51.6874ZM74.5716 26.1018C77.5074 29.2897 80.4478 32.8486 83.3399 36.7103C77.473 36.4326 71.5964 36.4314 65.7294 36.7068C68.6244 32.8807 71.5898 29.3265 74.5716 26.1018ZM48.1934 51.7311C46.7315 54.272 45.329 56.8468 43.987 59.4533C42.1338 55.0474 40.5478 50.715 39.2528 46.5313C43.5039 45.5781 48.0374 44.7988 52.7611 44.2073C51.18 46.6789 49.657 49.1873 48.1934 51.7306V51.7311ZM52.8967 89.8531C48.0164 89.3071 43.4149 88.5681 39.1649 87.6406C40.4803 83.3822 42.1012 78.9576 43.9946 74.4572C45.3419 77.0657 46.7502 79.642 48.2184 82.1841C49.7282 84.7974 51.2915 87.3571 52.8967 89.8531ZM74.7474 107.954C71.7301 104.692 68.721 101.083 65.7823 97.2014C68.6355 97.3134 71.5439 97.3706 74.5 97.3706C77.537 97.3706 80.5392 97.3023 83.4941 97.1705C80.5927 101.122 77.6633 104.736 74.7474 107.954ZM105.128 74.2274C107.12 78.7774 108.799 83.1786 110.131 87.364C105.812 88.3522 101.147 89.1479 96.2325 89.7388C97.8073 87.2366 99.3323 84.7033 100.807 82.1403C102.306 79.5351 103.746 76.8968 105.128 74.2274V74.2274ZM95.2931 78.953C93.0361 82.8825 90.6522 86.7375 88.1451 90.5117C83.6039 90.8341 79.0526 90.9942 74.5 90.9918C69.863 90.9918 65.3528 90.8471 61.0097 90.5648C58.4372 86.7993 56.0078 82.9376 53.7267 78.988H53.7273C51.4569 75.0593 49.3362 71.0456 47.3698 66.9555C49.3312 62.8646 51.4455 58.849 53.7081 54.9173L53.7075 54.9179C55.9693 50.9852 58.3793 47.14 60.9323 43.3906C65.3633 43.0546 69.9072 42.8796 74.4994 42.8796H74.5C79.1132 42.8796 83.6629 43.0564 88.0928 43.3947C90.62 47.1385 93.0146 50.9704 95.2721 54.8835C97.5423 58.8065 99.6845 62.8025 101.695 66.8651C99.7052 70.9693 97.5697 75.0011 95.2931 78.953V78.953ZM108.424 7.71397C113.413 10.598 115.353 22.2279 112.219 37.4791C112.018 38.4521 111.794 39.4432 111.549 40.4483C105.367 39.018 98.6543 37.9546 91.6263 37.2936C87.5323 31.4504 83.2898 26.138 79.0311 21.539C80.1472 20.4607 81.2899 19.4104 82.4581 18.389C93.4585 8.79489 103.74 5.00672 108.424 7.71397V7.71397ZM74.5 53.4683C81.8481 53.4683 87.8052 59.4387 87.8052 66.8033C87.8052 74.1679 81.8481 80.1383 74.5 80.1383C67.1519 80.1383 61.1948 74.1679 61.1948 66.8033C61.1948 59.4387 67.1519 53.4683 74.5 53.4683V53.4683Z" fill="#00D8FF"/>
</g>
<defs>
<clipPath id="clip0_12_78">
<rect width="149" height="133" fill="white" transform="translate(0 0.49707)"/>
</clipPath>
</defs>
</svg>
