<svg width="199" height="200" viewBox="0 0 199 200" fill="none" xmlns="http://www.w3.org/2000/svg">
<g clip-path="url(#clip0_12_93)">
<path d="M199 73.215H178.536V135.941H166.721V73.215H146.306V62.9333H199V73.215ZM142.186 135.941H102.211V62.9333H140.602V73.215H114.027V93.8944H138.512V104.126H114.027V125.718H142.186V135.941ZM86.565 135.941H73.6466L39.6342 82.2778C38.7834 80.9422 38.0668 79.5257 37.4949 78.049H37.1964C37.4618 79.6162 37.5944 82.9577 37.5944 88.082V135.941H26.1768V62.9333H39.9327L72.8091 115.337C74.1938 117.501 75.0893 119.002 75.4873 119.814H75.6863C75.3547 117.882 75.1888 114.599 75.1888 109.989V62.925H86.565V135.941ZM14.4026 130.195C14.4026 131.099 14.2162 131.993 13.854 132.828C13.4918 133.662 12.9609 134.42 12.2917 135.059C11.6225 135.697 10.8281 136.203 9.95395 136.548C9.0798 136.893 8.14301 137.07 7.19717 137.069C6.2513 137.069 5.3147 136.891 4.44093 136.545C3.56716 136.199 2.77337 135.692 2.10493 135.053C1.4365 134.414 0.906544 133.655 0.545363 132.82C0.184183 131.985 -0.00113575 131.09 5.23675e-06 130.187C0.00230597 128.365 0.761592 126.619 2.11107 125.332C3.46055 124.045 5.28987 123.322 7.19717 123.322C8.14301 123.321 9.0798 123.498 9.95395 123.843C10.8281 124.187 11.6225 124.694 12.2917 125.332C12.9609 125.97 13.4918 126.729 13.854 127.563C14.2162 128.398 14.4026 129.292 14.4026 130.195V130.195Z" fill="black"/>
</g>
<defs>
<clipPath id="clip0_12_93">
<rect width="199" height="199" fill="white" transform="translate(0 0.49707)"/>
</clipPath>
</defs>
</svg>
