<svg width="173" height="130" viewBox="0 0 173 130" fill="none" xmlns="http://www.w3.org/2000/svg">
<g clip-path="url(#clip0_10_10)">
<path d="M39.3183 129.36V62.7368L18.5887 43.8343L0 33.3447V117.603C0 124.108 5.28799 129.36 11.7958 129.36H39.3183V129.36Z" fill="#4285F4"/>
<path d="M133.682 129.36H161.204C167.732 129.36 173 124.089 173 117.603V33.3452L151.945 45.3598L133.682 62.7367V129.36V129.36Z" fill="#34A853"/>
<path d="M39.3183 62.7366L36.4976 36.7049L39.3183 11.79L86.5 47.0611L133.682 11.79L136.837 35.3598L133.682 62.7366L86.5 98.0077L39.3183 62.7366Z" fill="#EA4335"/>
<path d="M133.682 11.7901V62.7366L173 33.3445V17.6683C173 3.12922 156.349 -5.15912 144.692 3.56031L133.682 11.7901Z" fill="#FBBC04"/>
<path d="M0 33.3448L18.0832 46.8634L39.3183 62.7369V11.7904L28.3085 3.56062C16.631 -5.15948 0 3.12953 0 17.668V33.3441V33.3448Z" fill="#C5221F"/>
</g>
<defs>
<clipPath id="clip0_10_10">
<rect width="173" height="130" fill="white"/>
</clipPath>
</defs>
</svg>
