<svg width="1440" height="263" viewBox="0 0 1440 263" fill="none" xmlns="http://www.w3.org/2000/svg">
<path fill-rule="evenodd" clip-rule="evenodd" d="M-22 22.4238L9.1042 15.7525C40.2084 9.08116 102.417 -4.26149 164.625 2.40983C226.833 9.08116 289.042 35.7665 351.25 62.4518C413.458 89.1371 475.667 115.822 537.875 122.494C600.083 129.165 662.292 115.822 724.5 95.8084C786.708 75.7944 848.917 49.1091 911.125 69.1231C973.333 89.1371 1035.54 155.85 1097.75 189.207C1159.96 222.564 1222.17 222.564 1284.38 189.207C1346.58 155.85 1408.79 89.1371 1439.9 55.7805L1471 22.4238V262.592H1439.9C1408.79 262.592 1346.58 262.592 1284.38 262.592C1222.17 262.592 1159.96 262.592 1097.75 262.592C1035.54 262.592 973.333 262.592 911.125 262.592C848.917 262.592 786.708 262.592 724.5 262.592C662.292 262.592 600.083 262.592 537.875 262.592C475.667 262.592 413.458 262.592 351.25 262.592C289.042 262.592 226.833 262.592 164.625 262.592C102.417 262.592 40.2084 262.592 9.1042 262.592H-22L-22 22.4238Z" fill="#434242"/>
</svg>
