<svg width="1440" height="458" viewBox="0 0 1440 458" fill="none" xmlns="http://www.w3.org/2000/svg">
<path fill-rule="evenodd" clip-rule="evenodd" d="M-77.0295 130.48L-39.3398 127.333C-2.94977 124.295 71.13 118.11 144.559 104.127C219.287 90.0355 292.065 68.2546 367.447 77.6654C442.828 87.0763 520.815 127.679 598.801 168.282C676.787 208.884 756.073 249.379 829.501 235.396C902.93 221.413 971.801 152.844 1045.23 138.861C1118.66 124.878 1196.64 165.481 1271.37 151.389C1344.8 137.406 1413.67 68.8376 1447.46 34.6076L1482.54 0.269016L1509.89 327.783L1472.2 330.93C1435.81 333.968 1361.73 340.153 1287.65 346.338C1212.27 352.632 1138.19 358.817 1064.11 365.002C990.031 371.187 915.951 377.372 841.871 383.557C767.792 389.742 692.412 396.035 618.332 402.22C544.253 408.405 470.173 414.59 396.093 420.775C322.013 426.96 247.934 433.145 172.554 439.439C98.4746 445.624 24.3948 451.809 -11.9952 454.847L-49.6849 457.994L-77.0295 130.48Z" fill="#F3EFE0"/>
</svg>
