<svg width="1440" height="307" viewBox="0 0 1440 307" fill="none" xmlns="http://www.w3.org/2000/svg">
<path fill-rule="evenodd" clip-rule="evenodd" d="M-26.0672 66.2463L4.71464 58.2181C35.4965 50.19 97.0603 34.1337 159.501 38.0721C221.942 42.0106 285.26 65.9438 348.578 89.877C411.897 113.81 475.215 137.743 537.656 141.682C600.097 145.62 661.66 129.564 722.932 106.843C784.203 84.1216 845.182 54.7355 908.208 72.0038C971.234 89.2721 1036.31 153.195 1099.92 183.793C1163.53 214.391 1225.68 211.665 1286.36 175.614C1347.05 139.562 1406.27 70.1868 1435.89 35.499L1465.5 0.811201L1476.02 240.748L1444.95 242.111C1413.88 243.475 1351.73 246.201 1289.58 248.928C1227.43 251.654 1165.28 254.381 1103.13 257.107C1040.98 259.833 978.836 262.56 916.687 265.286C854.539 268.013 792.39 270.739 730.241 273.466C668.093 276.192 605.944 278.919 543.796 281.645C481.647 284.372 419.499 287.098 357.35 289.825C295.202 292.551 233.053 295.277 170.904 298.004C108.756 300.73 46.6074 303.457 15.5331 304.82L-15.5412 306.183L-26.0672 66.2463Z" fill="#434242"/>
</svg>
