<svg width="1440" height="425" viewBox="0 0 1440 425" fill="none" xmlns="http://www.w3.org/2000/svg">
<path fill-rule="evenodd" clip-rule="evenodd" d="M1529.9 96.4795L1492.15 94.1669C1455.7 91.9341 1381.5 87.3887 1307.78 75.0328C1232.76 62.5972 1159.52 42.4309 1084.37 53.5063C1009.21 64.5818 932.141 106.899 855.072 149.216C778.002 191.533 699.631 233.771 625.911 221.415C552.192 209.059 481.821 142.03 408.101 129.674C334.381 117.318 257.312 159.636 182.29 147.2C108.57 134.844 38.1995 67.8152 3.6651 34.3406L-32.1711 0.786246L-52.2668 328.825L-14.5168 331.137C21.9315 333.37 96.1299 337.916 170.328 342.461C245.828 347.086 320.027 351.632 394.225 356.177C468.424 360.723 542.622 365.268 616.821 369.813C691.019 374.359 766.519 378.984 840.717 383.529C914.916 388.075 989.114 392.62 1063.31 397.166C1137.51 401.711 1211.71 406.257 1287.21 410.882C1361.41 415.427 1435.61 419.973 1472.05 422.205L1509.8 424.518L1529.9 96.4795Z" fill="#222222"/>
</svg>
